<svg width="181" height="55" viewBox="0 0 181 55" fill="none" xmlns="http://www.w3.org/2000/svg">
<path d="M6.9966 0H174.003C177.865 0 181 3.13268 181 6.99101V48.009C181 51.8673 177.865 55 174.003 55H6.9966C3.13519 55 0 51.8673 0 48.009V6.99101C0 3.13268 3.13519 0 6.9966 0Z" fill="#00D4A7"/>
<path d="M19.2266 22.9103C16.2902 28.001 18.1567 35.7274 21.4037 40.4118C23.0242 42.7544 24.6657 44.8564 26.9126 44.8564C26.9546 44.8564 26.9974 44.8556 27.0409 44.8534C28.0972 44.8114 28.8602 44.4868 29.5977 44.1727C30.4259 43.8196 31.2834 43.4553 32.6271 43.4553C33.9707 43.4553 34.721 43.8084 35.5094 44.1487C36.2874 44.4853 37.0879 44.8331 38.2718 44.8106C40.803 44.7634 42.3575 42.495 43.7289 40.4935C45.1603 38.4043 45.8783 36.3759 46.1199 35.6L46.1296 35.5693C46.1761 35.4313 46.1101 35.2814 45.9781 35.2207C45.9781 35.2207 45.9616 35.2132 45.9578 35.2117C45.5122 35.0295 41.6013 33.2956 41.56 28.5715C41.5217 24.7327 44.4934 22.7004 45.0898 22.3316L45.1176 22.3136C45.1821 22.2724 45.2271 22.2064 45.2429 22.1315C45.2579 22.0558 45.2429 21.9778 45.1986 21.9141C43.1475 18.9148 40.0033 18.4628 38.7377 18.4088C38.5546 18.3901 38.3648 18.3811 38.1742 18.3811C36.6873 18.3811 35.2634 18.9418 34.1185 19.3931C33.3285 19.7042 32.6466 19.9733 32.1762 19.9733C31.6473 19.9733 30.9608 19.7012 30.1671 19.3863C29.104 18.9651 27.8999 18.4875 26.6253 18.4875C26.5945 18.4875 26.5653 18.4875 26.536 18.489C23.5719 18.5325 20.7705 20.2267 19.2266 22.9103Z" fill="#1E1E1E"/>
<path d="M38.7399 10.154C36.9454 10.2268 34.7915 11.3309 33.5049 12.8377C32.4103 14.1031 31.3427 16.2148 31.624 18.3422C31.6421 18.4756 31.7508 18.5776 31.8844 18.5888C32.0059 18.5978 32.129 18.6031 32.252 18.6031C34.0068 18.6031 35.9003 17.6323 37.1937 16.0701C38.5546 14.4209 39.2426 12.304 39.0348 10.4074C39.0183 10.2582 38.887 10.148 38.7399 10.154Z" fill="#1E1E1E"/>
<path d="M68.4907 32.2444H61.1408L59.6921 35.6432H56.878L63.4928 20.9558H66.1808L72.8165 35.6432H69.9604L68.4907 32.2444ZM67.5875 30.1042L64.8154 23.6837L62.0643 30.1042H67.5875Z" fill="#1E1E1E"/>
<path d="M83.5786 25.0261C84.4398 25.5021 85.115 26.1731 85.6049 27.0404C86.0948 27.9077 86.3401 28.9077 86.3401 30.0411C86.3401 31.1745 86.0948 32.1783 85.6049 33.0524C85.115 33.9264 84.4391 34.6018 83.5786 35.0771C82.7173 35.5531 81.7413 35.7907 80.6489 35.7907C79.1372 35.7907 77.9399 35.287 77.0584 34.2802V39.715H74.4333V24.4399H76.9323V25.9084C77.3659 25.3769 77.9016 24.9781 78.5385 24.712C79.1755 24.4467 79.8792 24.3132 80.6489 24.3132C81.7413 24.3132 82.7173 24.5516 83.5786 25.0269V25.0261ZM82.7383 32.5801C83.361 31.9369 83.6731 31.0906 83.6731 30.0411C83.6731 28.9916 83.3617 28.1461 82.7383 27.5021C82.1149 26.859 81.3211 26.5366 80.3548 26.5366C79.7247 26.5366 79.1582 26.6805 78.6541 26.9669C78.1499 27.254 77.7508 27.6633 77.4575 28.1948C77.1634 28.7263 77.0163 29.3417 77.0163 30.0411C77.0163 30.7405 77.1634 31.356 77.4575 31.8874C77.7516 32.4189 78.1507 32.8282 78.6541 33.1153C79.1582 33.4024 79.7247 33.5456 80.3548 33.5456C81.3211 33.5456 82.1149 33.224 82.7383 32.5801Z" fill="#1E1E1E"/>
<path d="M97.9836 25.0261C98.8449 25.5021 99.5201 26.1731 100.01 27.0404C100.5 27.9077 100.745 28.9077 100.745 30.0411C100.745 31.1745 100.5 32.1783 100.01 33.0524C99.5201 33.9264 98.8441 34.6018 97.9836 35.0771C97.1224 35.5531 96.1463 35.7907 95.054 35.7907C93.5423 35.7907 92.3449 35.287 91.4634 34.2802V39.715H88.8384V24.4399H91.3374V25.9084C91.771 25.3769 92.3067 24.9781 92.9436 24.712C93.5805 24.4467 94.2843 24.3132 95.054 24.3132C96.1463 24.3132 97.1224 24.5516 97.9836 25.0269V25.0261ZM97.1434 32.5801C97.7661 31.9369 98.0781 31.0906 98.0781 30.0411C98.0781 28.9916 97.7668 28.1461 97.1434 27.5021C96.5199 26.859 95.7262 26.5366 94.7599 26.5366C94.1297 26.5366 93.5633 26.6805 93.0591 26.9669C92.555 27.254 92.1559 27.6633 91.8625 28.1948C91.5684 28.7263 91.4214 29.3417 91.4214 30.0411C91.4214 30.7405 91.5684 31.356 91.8625 31.8874C92.1566 32.4189 92.5557 32.8282 93.0591 33.1153C93.5633 33.4024 94.1297 33.5456 94.7599 33.5456C95.7262 33.5456 96.5199 33.224 97.1434 32.5801Z" fill="#1E1E1E"/>
<path d="M110.561 35.3703C109.504 35.0487 108.668 34.6222 108.052 34.0907L108.997 31.9715C109.599 32.4475 110.338 32.8351 111.212 33.1357C112.087 33.437 112.966 33.5869 113.848 33.5869C114.939 33.5869 115.755 33.4123 116.294 33.0622C116.833 32.7129 117.103 32.2511 117.103 31.6777C117.103 31.2579 116.952 30.9115 116.651 30.6387C116.351 30.3658 115.969 30.1529 115.507 29.9985C115.045 29.8448 114.416 29.6702 113.618 29.4738C112.497 29.2084 111.591 28.9423 110.898 28.6762C110.205 28.4108 109.61 27.994 109.113 27.428C108.616 26.8613 108.367 26.0959 108.367 25.1304C108.367 24.3193 108.588 23.581 109.029 22.9168C109.47 22.2526 110.135 21.7241 111.024 21.3328C111.913 20.9415 113.001 20.7451 114.29 20.7451C115.186 20.7451 116.068 20.8576 116.936 21.081C117.804 21.3051 118.553 21.6267 119.183 22.0465L118.321 24.1657C117.677 23.7878 117.006 23.5015 116.306 23.3051C115.606 23.1094 114.927 23.0112 114.269 23.0112C113.191 23.0112 112.389 23.1934 111.864 23.557C111.339 23.9205 111.077 24.4033 111.077 25.0045C111.077 25.4243 111.227 25.7669 111.528 26.0322C111.829 26.2983 112.211 26.5082 112.672 26.6619C113.134 26.8163 113.764 26.991 114.562 27.1866C115.654 27.4385 116.55 27.7009 117.25 27.9738C117.95 28.2466 118.549 28.6627 119.045 29.2219C119.542 29.7819 119.791 30.5367 119.791 31.488C119.791 32.2991 119.571 33.0337 119.129 33.6911C118.688 34.3486 118.02 34.8733 117.124 35.2646C116.228 35.6559 115.136 35.8523 113.849 35.8523C112.714 35.8523 111.619 35.6911 110.562 35.3696L110.561 35.3703Z" fill="#1E1E1E"/>
<path d="M128.988 35.0344C128.68 35.2863 128.305 35.4752 127.865 35.6011C127.424 35.727 126.959 35.79 126.469 35.79C125.237 35.79 124.285 35.4684 123.613 34.8245C122.941 34.1813 122.604 33.2443 122.604 32.0126V26.6198H120.757V24.5216H122.604V21.9617H125.23V24.5216H128.233V26.6198H125.23V31.9497C125.23 32.4954 125.362 32.9114 125.629 33.1978C125.894 33.4849 126.28 33.6281 126.783 33.6281C127.371 33.6281 127.861 33.4744 128.253 33.1663L128.988 35.0336V35.0344Z" fill="#1E1E1E"/>
<path d="M132.748 35.0554C131.837 34.5659 131.127 33.8837 130.616 33.0097C130.105 32.1356 129.849 31.1461 129.849 30.0404C129.849 28.9347 130.104 27.9497 130.616 27.0816C131.127 26.2143 131.837 25.5359 132.748 25.0464C133.658 24.5569 134.679 24.3118 135.814 24.3118C136.948 24.3118 137.99 24.5569 138.901 25.0464C139.811 25.5359 140.521 26.2143 141.032 27.0816C141.543 27.9489 141.799 28.9355 141.799 30.0404C141.799 31.1453 141.543 32.1356 141.032 33.0097C140.521 33.8837 139.811 34.5659 138.901 35.0554C137.991 35.5449 136.962 35.79 135.814 35.79C134.666 35.79 133.658 35.5456 132.748 35.0554ZM138.208 32.5794C138.838 31.9362 139.153 31.0899 139.153 30.0404C139.153 28.9909 138.838 28.1453 138.208 27.5014C137.577 26.8582 136.78 26.5359 135.814 26.5359C134.847 26.5359 134.053 26.8575 133.43 27.5014C132.807 28.1446 132.495 28.9909 132.495 30.0404C132.495 31.0899 132.807 31.9362 133.43 32.5794C134.053 33.2226 134.847 33.5449 135.814 33.5449C136.78 33.5449 137.577 33.2233 138.208 32.5794Z" fill="#1E1E1E"/>
<path d="M150.806 24.3125V26.8095C150.582 26.7675 150.379 26.7465 150.197 26.7465C149.175 26.7465 148.377 27.0441 147.803 27.6386C147.229 28.233 146.942 29.0899 146.942 30.209V35.6438H144.317V24.4392H146.816V26.0756C147.572 24.901 148.901 24.3133 150.805 24.3133L150.806 24.3125Z" fill="#1E1E1E"/>
<path d="M163.427 30.88H154.629C154.782 31.7053 155.185 32.359 155.836 32.8418C156.487 33.3245 157.295 33.5659 158.261 33.5659C159.493 33.5659 160.508 33.1603 161.306 32.3492L162.713 33.9647C162.209 34.5666 161.572 35.0209 160.802 35.3283C160.032 35.6364 159.164 35.79 158.198 35.79C156.966 35.79 155.881 35.5456 154.943 35.0554C154.005 34.5659 153.28 33.8837 152.77 33.0097C152.259 32.1356 152.003 31.1461 152.003 30.0404C152.003 28.9347 152.251 27.9669 152.749 27.0921C153.245 26.2181 153.935 25.5359 154.817 25.0464C155.699 24.5569 156.692 24.3118 157.799 24.3118C158.906 24.3118 159.867 24.5531 160.729 25.0359C161.59 25.5187 162.261 26.1971 162.745 27.0711C163.228 27.9452 163.469 28.9564 163.469 30.1034C163.469 30.2855 163.455 30.5442 163.427 30.88ZM155.668 27.1558C155.086 27.6528 154.734 28.3133 154.608 29.1386H160.97C160.858 28.3275 160.515 27.6701 159.941 27.1663C159.367 26.6626 158.653 26.4107 157.799 26.4107C156.945 26.4107 156.248 26.6588 155.668 27.1558Z" fill="#1E1E1E"/>
</svg>
