<svg width="214" height="65" viewBox="0 0 214 65" fill="none" xmlns="http://www.w3.org/2000/svg">
<path d="M8.27222 0H205.728C210.293 0 214 3.70226 214 8.2621V56.7379C214 61.2977 210.293 65 205.728 65H8.27222C3.7068 65 0 61.2977 0 56.7379V8.2621C0 3.70226 3.7068 0 8.27222 0Z" fill="#1E1E1E"/>
<path d="M21.7319 26.777C18.2602 32.7933 20.4671 41.9245 24.306 47.4606C26.222 50.2291 28.1627 52.7133 30.8193 52.7133C30.869 52.7133 30.9196 52.7124 30.971 52.7097C32.2199 52.6601 33.122 52.2765 33.9939 51.9053C34.9732 51.488 35.987 51.0575 37.5756 51.0575C39.1643 51.0575 40.0513 51.4747 40.9835 51.877C41.9034 52.2747 42.8498 52.6858 44.2495 52.6592C47.2422 52.6034 49.0801 49.9226 50.7016 47.5572C52.394 45.0881 53.2428 42.6908 53.5285 41.7739L53.54 41.7376C53.595 41.5746 53.5169 41.3974 53.3608 41.3256C53.3608 41.3256 53.3413 41.3168 53.3369 41.315C52.81 41.0997 48.186 39.0506 48.1372 33.4675C48.092 28.9307 51.6054 26.529 52.3106 26.0931L52.3434 26.0719C52.4197 26.0231 52.4729 25.9452 52.4915 25.8566C52.5093 25.7671 52.4915 25.675 52.4392 25.5997C50.0141 22.0551 46.2967 21.5209 44.8003 21.4571C44.5839 21.4349 44.3595 21.4243 44.1342 21.4243C42.3761 21.4243 40.6926 22.087 39.339 22.6203C38.405 22.988 37.5987 23.306 37.0426 23.306C36.4172 23.306 35.6056 22.9844 34.6672 22.6123C33.4103 22.1144 31.9866 21.5501 30.4796 21.5501C30.4432 21.5501 30.4086 21.5501 30.374 21.5519C26.8695 21.6033 23.5574 23.6054 21.7319 26.777Z" fill="#00D4A7"/>
<path d="M44.803 11.7013C42.6813 11.7873 40.1347 13.0922 38.6135 14.8729C37.3194 16.3683 36.0571 18.864 36.3898 21.3782C36.4111 21.5359 36.5397 21.6564 36.6976 21.6697C36.8413 21.6803 36.9867 21.6865 37.1322 21.6865C39.2069 21.6865 41.4457 20.5393 42.9749 18.693C44.5839 16.744 45.3973 14.2421 45.1516 12.0008C45.1321 11.8245 44.9769 11.6942 44.803 11.7013Z" fill="#00D4A7"/>
<path d="M69.5308 12.3106H73.5552C74.6107 12.3106 75.5483 12.5285 76.3661 12.9635C77.1848 13.3985 77.8217 14.0009 78.2767 14.7699C78.7317 15.5389 78.9597 16.4124 78.9597 17.3887C78.9597 18.365 78.7317 19.2385 78.2767 20.0075C77.8217 20.7764 77.1848 21.3789 76.3661 21.8139C75.5474 22.2488 74.6107 22.4668 73.5552 22.4668H69.5308V12.3097V12.3106ZM73.4975 21.8006C74.4369 21.8006 75.2653 21.6145 75.982 21.2416C76.6987 20.8695 77.2504 20.3494 77.6381 19.6814C78.0257 19.0143 78.219 18.2498 78.219 17.3887C78.219 16.5276 78.0248 15.7639 77.6381 15.0959C77.2504 14.4288 76.6987 13.9088 75.982 13.5358C75.2653 13.1637 74.4369 12.9768 73.4975 12.9768H70.2724V21.7997H73.4975V21.8006Z" fill="#00D4A7"/>
<path d="M82.3232 22.0327C81.7466 21.704 81.2943 21.2469 80.9652 20.6613C80.6361 20.0757 80.4711 19.4157 80.4711 18.6804C80.4711 17.9451 80.6361 17.2851 80.9652 16.6995C81.2943 16.1139 81.7475 15.6576 82.3232 15.3281C82.8998 14.9994 83.5455 14.8346 84.2631 14.8346C84.9807 14.8346 85.6264 14.9994 86.203 15.3281C86.7795 15.6567 87.2319 16.1139 87.561 16.6995C87.89 17.2851 88.055 17.9451 88.055 18.6804C88.055 19.4157 87.89 20.0757 87.561 20.6613C87.2319 21.2469 86.7786 21.704 86.203 22.0327C85.6264 22.3614 84.9798 22.5262 84.2631 22.5262C83.5464 22.5262 82.8998 22.3614 82.3232 22.0327ZM85.8242 21.4666C86.2846 21.1955 86.6474 20.819 86.9135 20.3344C87.1796 19.8507 87.3126 19.2996 87.3126 18.6804C87.3126 18.0611 87.1796 17.5101 86.9135 17.0264C86.6474 16.5426 86.2837 16.1653 85.8242 15.8942C85.3639 15.6231 84.8432 15.4875 84.2622 15.4875C83.6812 15.4875 83.1605 15.6231 82.7002 15.8942C82.2398 16.1653 81.877 16.5426 81.6109 17.0264C81.3448 17.5101 81.2118 18.062 81.2118 18.6804C81.2118 19.2988 81.3448 19.8507 81.6109 20.3344C81.877 20.8181 82.2407 21.1955 82.7002 21.4666C83.1605 21.7377 83.6812 21.8732 84.2622 21.8732C84.8432 21.8732 85.3639 21.7377 85.8242 21.4666Z" fill="#00D4A7"/>
<path d="M100.927 14.8931L98.0507 22.4677H97.3677L94.8105 15.8942L92.2391 22.4677H91.5711L88.6946 14.8931H89.3918L91.9197 21.6553L94.5054 14.8931H95.1298L97.7012 21.6402L100.258 14.8931H100.926H100.927Z" fill="#00D4A7"/>
<path d="M108.569 15.6621C109.121 16.2131 109.397 17.0069 109.397 18.0416V22.4677H108.671V18.1001C108.671 17.2487 108.455 16.6011 108.024 16.1555C107.593 15.7108 106.99 15.4884 106.216 15.4884C105.324 15.4884 104.623 15.7542 104.109 16.2866C103.595 16.8191 103.339 17.5349 103.339 18.4341V22.4677H102.613V14.8931H103.31V16.5329C103.571 16.0014 103.961 15.585 104.48 15.2846C104.998 14.9852 105.611 14.8346 106.318 14.8346C107.267 14.8346 108.017 15.1101 108.57 15.6621H108.569Z" fill="#00D4A7"/>
<path d="M112.39 11.701H113.117V22.4676H112.39V11.701Z" fill="#00D4A7"/>
<path d="M117.206 22.0327C116.629 21.704 116.177 21.2469 115.848 20.6613C115.519 20.0757 115.354 19.4157 115.354 18.6804C115.354 17.9451 115.519 17.2851 115.848 16.6995C116.177 16.1139 116.63 15.6576 117.206 15.3281C117.782 14.9994 118.428 14.8346 119.145 14.8346C119.863 14.8346 120.509 14.9994 121.085 15.3281C121.662 15.6567 122.114 16.1139 122.444 16.6995C122.773 17.2851 122.938 17.9451 122.938 18.6804C122.938 19.4157 122.773 20.0757 122.444 20.6613C122.115 21.2469 121.662 21.704 121.085 22.0327C120.509 22.3614 119.862 22.5262 119.145 22.5262C118.429 22.5262 117.782 22.3614 117.206 22.0327ZM120.707 21.4666C121.166 21.1955 121.53 20.819 121.796 20.3344C122.062 19.8507 122.195 19.2996 122.195 18.6804C122.195 18.0611 122.062 17.5101 121.796 17.0264C121.53 16.5426 121.166 16.1653 120.707 15.8942C120.246 15.6231 119.726 15.4875 119.145 15.4875C118.564 15.4875 118.043 15.6231 117.583 15.8942C117.122 16.1653 116.759 16.5426 116.493 17.0264C116.227 17.5101 116.094 18.062 116.094 18.6804C116.094 19.2988 116.227 19.8507 116.493 20.3344C116.759 20.8181 117.123 21.1955 117.583 21.4666C118.043 21.7377 118.564 21.8732 119.145 21.8732C119.726 21.8732 120.246 21.7377 120.707 21.4666Z" fill="#00D4A7"/>
<path d="M129.882 15.5531C130.386 16.0324 130.638 16.7358 130.638 17.6642V22.4668H129.94V21.1175C129.698 21.5623 129.344 21.9087 128.88 22.155C128.415 22.4012 127.858 22.5253 127.208 22.5253C126.366 22.5253 125.7 22.3268 125.211 21.9299C124.721 21.533 124.477 21.0112 124.477 20.3627C124.477 19.7142 124.703 19.2234 125.153 18.8319C125.604 18.4403 126.323 18.2445 127.31 18.2445H129.911V17.635C129.911 16.9289 129.72 16.392 129.337 16.0244C128.955 15.6567 128.395 15.4734 127.659 15.4734C127.155 15.4734 126.674 15.5602 126.213 15.7347C125.753 15.9092 125.363 16.1413 125.043 16.431L124.68 15.9083C125.058 15.5699 125.513 15.3059 126.046 15.1172C126.579 14.9285 127.136 14.8346 127.718 14.8346C128.657 14.8346 129.379 15.0738 129.883 15.5531H129.882ZM128.916 21.495C129.357 21.2044 129.688 20.7836 129.911 20.2325V18.8106H127.325C126.579 18.8106 126.039 18.9462 125.706 19.2173C125.371 19.4883 125.205 19.8604 125.205 20.3344C125.205 20.8084 125.388 21.2177 125.756 21.502C126.124 21.7873 126.642 21.9299 127.311 21.9299C127.941 21.9299 128.476 21.7846 128.917 21.495H128.916Z" fill="#00D4A7"/>
<path d="M140.386 11.701V22.4676H139.673V20.6825C139.373 21.2725 138.951 21.727 138.409 22.0468C137.867 22.3658 137.252 22.5261 136.565 22.5261C135.877 22.5261 135.218 22.3613 134.647 22.0327C134.076 21.704 133.628 21.2495 133.303 20.6683C132.978 20.0881 132.816 19.4254 132.816 18.6803C132.816 17.9353 132.978 17.2708 133.303 16.6852C133.628 16.0996 134.076 15.6452 134.647 15.3209C135.218 14.9967 135.858 14.8346 136.565 14.8346C137.271 14.8346 137.851 14.994 138.388 15.3138C138.926 15.6328 139.35 16.0784 139.659 16.6489V11.701H140.386ZM138.17 21.4666C138.629 21.1955 138.993 20.819 139.259 20.3344C139.525 19.8506 139.658 19.2996 139.658 18.6803C139.658 18.0611 139.525 17.51 139.259 17.0263C138.993 16.5426 138.629 16.1652 138.17 15.8941C137.71 15.623 137.189 15.4875 136.608 15.4875C136.027 15.4875 135.506 15.623 135.046 15.8941C134.586 16.1652 134.223 16.5426 133.957 17.0263C133.691 17.51 133.558 18.062 133.558 18.6803C133.558 19.2987 133.691 19.8506 133.957 20.3344C134.223 20.8181 134.587 21.1955 135.046 21.4666C135.506 21.7376 136.027 21.8732 136.608 21.8732C137.189 21.8732 137.71 21.7376 138.17 21.4666Z" fill="#00D4A7"/>
<path d="M148.209 22.0327C147.633 21.704 147.18 21.2469 146.851 20.6613C146.522 20.0757 146.357 19.4157 146.357 18.6804C146.357 17.9451 146.522 17.2851 146.851 16.6995C147.18 16.1139 147.634 15.6576 148.209 15.3281C148.786 14.9994 149.431 14.8346 150.149 14.8346C150.867 14.8346 151.512 14.9994 152.089 15.3281C152.666 15.6567 153.118 16.1139 153.448 16.6995C153.777 17.2851 153.942 17.9451 153.942 18.6804C153.942 19.4157 153.777 20.0757 153.448 20.6613C153.119 21.2469 152.666 21.704 152.089 22.0327C151.512 22.3614 150.866 22.5262 150.149 22.5262C149.432 22.5262 148.786 22.3614 148.209 22.0327ZM151.71 21.4666C152.17 21.1955 152.533 20.819 152.799 20.3344C153.066 19.8507 153.199 19.2996 153.199 18.6804C153.199 18.0611 153.066 17.5101 152.799 17.0264C152.533 16.5426 152.17 16.1653 151.71 15.8942C151.25 15.6231 150.729 15.4875 150.148 15.4875C149.567 15.4875 149.047 15.6231 148.586 15.8942C148.126 16.1653 147.763 16.5426 147.497 17.0264C147.231 17.5101 147.098 18.062 147.098 18.6804C147.098 19.2988 147.231 19.8507 147.497 20.3344C147.763 20.8181 148.127 21.1955 148.586 21.4666C149.047 21.7377 149.567 21.8732 150.148 21.8732C150.729 21.8732 151.25 21.7377 151.71 21.4666Z" fill="#00D4A7"/>
<path d="M162.148 15.6621C162.7 16.2131 162.977 17.0069 162.977 18.0416V22.4677H162.25V18.1001C162.25 17.2487 162.035 16.6011 161.604 16.1555C161.173 15.7108 160.57 15.4884 159.795 15.4884C158.904 15.4884 158.202 15.7542 157.689 16.2866C157.175 16.8191 156.919 17.5349 156.919 18.4341V22.4677H156.192V14.8931H156.889V16.5329C157.151 16.0014 157.54 15.585 158.059 15.2846C158.577 14.9852 159.19 14.8346 159.897 14.8346C160.846 14.8346 161.597 15.1101 162.149 15.6621H162.148Z" fill="#00D4A7"/>
<path d="M173.467 21.9884C173.282 22.1629 173.052 22.2958 172.777 22.387C172.501 22.4792 172.212 22.5252 171.912 22.5252C171.253 22.5252 170.744 22.3436 170.386 21.9813C170.028 21.6189 169.849 21.1131 169.849 20.4646V15.5167H168.454V14.893H169.849V13.239H170.575V14.893H172.987V15.5167H170.575V20.3928C170.575 20.8863 170.694 21.261 170.931 21.5171C171.168 21.7731 171.519 21.9015 171.984 21.9015C172.45 21.9015 172.851 21.7616 173.162 21.4807L173.467 21.9884Z" fill="#00D4A7"/>
<path d="M181.443 15.662C181.994 16.2131 182.271 17.0068 182.271 18.0416V22.4676H181.545V18.1001C181.545 17.2487 181.329 16.6011 180.898 16.1555C180.467 15.7107 179.864 15.4884 179.089 15.4884C178.198 15.4884 177.496 15.7541 176.983 16.2866C176.469 16.819 176.213 17.5348 176.213 18.434V22.4676H175.486V11.701H176.213V16.4753C176.474 15.9526 176.861 15.5495 177.375 15.2633C177.888 14.9781 178.493 14.8354 179.19 14.8354C180.14 14.8354 180.89 15.111 181.443 15.6629V15.662Z" fill="#00D4A7"/>
<path d="M191.685 18.8548H185.162C185.181 19.4448 185.331 19.9702 185.612 20.4291C185.894 20.8889 186.273 21.2441 186.753 21.4957C187.233 21.7473 187.772 21.8732 188.373 21.8732C188.867 21.8732 189.325 21.7837 189.746 21.6047C190.167 21.4258 190.518 21.1617 190.8 20.8136L191.221 21.292C190.892 21.6889 190.478 21.9936 189.979 22.2063C189.481 22.4189 188.94 22.5252 188.359 22.5252C187.604 22.5252 186.931 22.3604 186.34 22.0317C185.749 21.703 185.286 21.2486 184.952 20.6674C184.618 20.0871 184.451 19.4245 184.451 18.6794C184.451 17.9343 184.608 17.2841 184.923 16.6985C185.238 16.1129 185.672 15.6566 186.224 15.3271C186.775 14.9984 187.395 14.8336 188.083 14.8336C188.77 14.8336 189.388 14.9957 189.935 15.32C190.482 15.6442 190.913 16.0961 191.228 16.6763C191.543 17.2566 191.7 17.9149 191.7 18.6502L191.686 18.853L191.685 18.8548ZM186.643 15.8294C186.216 16.0668 185.875 16.3999 185.619 16.8305C185.362 17.261 185.214 17.7474 185.175 18.2887H190.987C190.958 17.7474 190.812 17.2637 190.551 16.8376C190.29 16.4123 189.945 16.0783 189.52 15.8365C189.093 15.5946 188.614 15.4741 188.081 15.4741C187.548 15.4741 187.069 15.5929 186.643 15.8294Z" fill="#00D4A7"/>
<path d="M80.2875 44.923H71.5975L69.8847 48.9398H66.5576L74.3783 31.5819H77.5564L85.402 48.9398H82.0252L80.2875 44.923ZM79.2196 42.3937L75.9421 34.8058L72.6894 42.3937H79.2196Z" fill="#00D4A7"/>
<path d="M98.1261 36.3926C99.1444 36.9551 99.9427 37.748 100.522 38.773C101.101 39.798 101.391 40.9798 101.391 42.3194C101.391 43.6589 101.101 44.8451 100.522 45.8781C99.9427 46.9111 99.1435 47.7093 98.1261 48.271C97.1079 48.8335 95.9539 49.1144 94.6624 49.1144C92.8751 49.1144 91.4594 48.519 90.4172 47.3292V53.7522H87.3135V35.6998H90.2682V37.4353C90.7808 36.8072 91.4142 36.3359 92.1672 36.0214C92.9203 35.7077 93.7523 35.55 94.6624 35.55C95.9539 35.55 97.1079 35.8318 98.1261 36.3934V36.3926ZM97.1327 45.32C97.8689 44.5599 98.2379 43.5596 98.2379 42.3194C98.2379 41.0791 97.8698 40.0798 97.1327 39.3187C96.3956 38.5586 95.4571 38.1777 94.3147 38.1777C93.5696 38.1777 92.8999 38.3478 92.3038 38.6862C91.7078 39.0255 91.2359 39.5092 90.8891 40.1373C90.5414 40.7655 90.3675 41.4928 90.3675 42.3194C90.3675 43.1459 90.5414 43.8733 90.8891 44.5014C91.2368 45.1295 91.7086 45.6132 92.3038 45.9525C92.8999 46.2918 93.5696 46.461 94.3147 46.461C95.4571 46.461 96.3956 46.081 97.1327 45.32Z" fill="#00D4A7"/>
<path d="M115.158 36.3926C116.176 36.9551 116.974 37.748 117.553 38.773C118.133 39.798 118.423 40.9798 118.423 42.3194C118.423 43.6589 118.133 44.8451 117.553 45.8781C116.974 46.9111 116.175 47.7093 115.158 48.271C114.139 48.8335 112.985 49.1144 111.694 49.1144C109.906 49.1144 108.491 48.519 107.449 47.3292V53.7522H104.345V35.6998H107.3V37.4353C107.812 36.8072 108.446 36.3359 109.199 36.0214C109.952 35.7077 110.784 35.55 111.694 35.55C112.985 35.55 114.139 35.8318 115.158 36.3934V36.3926ZM114.164 45.32C114.9 44.5599 115.269 43.5596 115.269 42.3194C115.269 41.0791 114.901 40.0798 114.164 39.3187C113.427 38.5586 112.489 38.1777 111.346 38.1777C110.601 38.1777 109.931 38.3478 109.335 38.6862C108.739 39.0255 108.267 39.5092 107.92 40.1373C107.573 40.7655 107.399 41.4928 107.399 42.3194C107.399 43.1459 107.573 43.8733 107.92 44.5014C108.268 45.1295 108.74 45.6132 109.335 45.9525C109.931 46.2918 110.601 46.461 111.346 46.461C112.489 46.461 113.427 46.081 114.164 45.32Z" fill="#00D4A7"/>
<path d="M130.028 48.6173C128.778 48.2373 127.789 47.7332 127.061 47.1051L128.179 44.6006C128.89 45.1631 129.764 45.6211 130.798 45.9764C131.832 46.3325 132.871 46.5097 133.914 46.5097C135.205 46.5097 136.169 46.3033 136.807 45.8896C137.444 45.4767 137.763 44.931 137.763 44.2533C137.763 43.7572 137.585 43.3479 137.229 43.0254C136.873 42.7029 136.422 42.4513 135.876 42.2688C135.33 42.0872 134.586 41.8808 133.642 41.6487C132.318 41.3351 131.246 41.0206 130.426 40.7061C129.607 40.3924 128.903 39.8999 128.316 39.231C127.728 38.5612 127.435 37.6567 127.435 36.5156C127.435 35.5571 127.695 34.6845 128.217 33.8995C128.738 33.1146 129.524 32.49 130.575 32.0276C131.627 31.5651 132.913 31.333 134.437 31.333C135.496 31.333 136.539 31.4659 137.565 31.7299C138.591 31.9948 139.477 32.3749 140.222 32.871L139.203 35.3755C138.441 34.929 137.648 34.5905 136.82 34.3584C135.992 34.1272 135.19 34.0112 134.412 34.0112C133.137 34.0112 132.19 34.2264 131.569 34.6561C130.948 35.0858 130.638 35.6563 130.638 36.3668C130.638 36.8629 130.815 37.2678 131.172 37.5814C131.527 37.8959 131.979 38.144 132.524 38.3256C133.071 38.5081 133.815 38.7145 134.759 38.9457C136.05 39.2434 137.109 39.5535 137.937 39.8759C138.764 40.1984 139.472 40.6901 140.059 41.351C140.647 42.0128 140.941 42.9049 140.941 44.0291C140.941 44.9877 140.68 45.8559 140.159 46.6329C139.637 47.4098 138.847 48.03 137.788 48.4924C136.729 48.9549 135.437 49.187 133.915 49.187C132.574 49.187 131.279 48.9965 130.029 48.6164L130.028 48.6173Z" fill="#00D4A7"/>
<path d="M151.815 48.2204C151.45 48.5181 151.008 48.7414 150.487 48.8902C149.965 49.039 149.415 49.1134 148.836 49.1134C147.38 49.1134 146.254 48.7334 145.459 47.9724C144.665 47.2123 144.267 46.1049 144.267 44.6493V38.276H142.083V35.7963H144.267V32.7709H147.371V35.7963H150.922V38.276H147.371V44.5749C147.371 45.2198 147.528 45.7115 147.843 46.0499C148.157 46.3892 148.613 46.5585 149.208 46.5585C149.903 46.5585 150.483 46.3768 150.946 46.0127L151.815 48.2196V48.2204Z" fill="#00D4A7"/>
<path d="M156.26 48.2452C155.184 47.6667 154.344 46.8605 153.74 45.8276C153.136 44.7946 152.833 43.6251 152.833 42.3184C152.833 41.0117 153.135 39.8476 153.74 38.8217C154.344 37.7967 155.184 36.9949 156.26 36.4164C157.336 35.8379 158.544 35.5482 159.885 35.5482C161.226 35.5482 162.458 35.8379 163.535 36.4164C164.611 36.9949 165.451 37.7967 166.055 38.8217C166.659 39.8467 166.961 41.0126 166.961 42.3184C166.961 43.6243 166.659 44.7946 166.055 45.8276C165.451 46.8605 164.611 47.6667 163.535 48.2452C162.459 48.8237 161.242 49.1134 159.885 49.1134C158.528 49.1134 157.336 48.8246 156.26 48.2452ZM162.715 45.319C163.46 44.5589 163.833 43.5587 163.833 42.3184C163.833 41.0781 163.46 40.0788 162.715 39.3178C161.97 38.5577 161.027 38.1767 159.885 38.1767C158.742 38.1767 157.803 38.5568 157.067 39.3178C156.33 40.0779 155.962 41.0781 155.962 42.3184C155.962 43.5587 156.33 44.5589 157.067 45.319C157.803 46.0792 158.742 46.4601 159.885 46.4601C161.027 46.4601 161.97 46.08 162.715 45.319Z" fill="#00D4A7"/>
<path d="M177.611 35.5491V38.5001C177.346 38.4505 177.106 38.4257 176.891 38.4257C175.682 38.4257 174.739 38.7774 174.06 39.4799C173.382 40.1824 173.042 41.195 173.042 42.5177V48.9406H169.938V35.6988H172.893V37.6328C173.787 36.2445 175.359 35.55 177.61 35.55L177.611 35.5491Z" fill="#00D4A7"/>
<path d="M192.533 43.3107H182.13C182.312 44.2861 182.788 45.0586 183.557 45.6291C184.327 46.1996 185.282 46.4849 186.425 46.4849C187.881 46.4849 189.082 46.0056 190.025 45.0471L191.688 46.9562C191.092 47.6676 190.339 48.2045 189.429 48.5677C188.519 48.9318 187.493 49.1134 186.35 49.1134C184.894 49.1134 183.61 48.8246 182.502 48.2452C181.393 47.6667 180.536 46.8605 179.932 45.8276C179.328 44.7946 179.026 43.6251 179.026 42.3184C179.026 41.0117 179.319 39.868 179.907 38.8341C180.494 37.8011 181.31 36.9949 182.353 36.4164C183.396 35.8379 184.57 35.5482 185.879 35.5482C187.187 35.5482 188.324 35.8335 189.342 36.404C190.361 36.9746 191.154 37.7763 191.726 38.8093C192.297 39.8423 192.583 41.0374 192.583 42.3928C192.583 42.6081 192.566 42.9138 192.533 43.3107ZM183.359 38.9094C182.671 39.4968 182.254 40.2773 182.105 41.2527H189.628C189.495 40.2941 189.089 39.5171 188.411 38.9218C187.732 38.3265 186.888 38.0288 185.879 38.0288C184.869 38.0288 184.045 38.322 183.359 38.9094Z" fill="#00D4A7"/>
</svg>
