<svg width="226" height="65" viewBox="0 0 226 65" fill="none" xmlns="http://www.w3.org/2000/svg">
<path d="M8.73605 0H217.264C222.085 0 226 3.70226 226 8.2621V56.7379C226 61.2977 222.085 65 217.264 65H8.73605C3.91464 65 0 61.2977 0 56.7379V8.2621C0 3.70226 3.91464 0 8.73605 0Z" fill="#1E1E1E"/>
<path d="M55.4928 31.7341L47.3395 27.0352L40.6338 33.5095L46.7621 39.4265L55.4928 34.3936C55.9736 34.1172 56.261 33.6193 56.261 33.0647C56.261 32.5101 55.9736 32.0123 55.4928 31.735V31.7341Z" fill="#FCC70A"/>
<path d="M45.9558 26.2369L36.9829 21.0641L17.3198 11L39.5286 32.4419L45.9558 26.2369Z" fill="#FCC70A"/>
<path d="M17.6462 55.7027L37.0165 45.0451L45.3783 40.2248L39.5285 34.577L17.6462 55.7027Z" fill="#FCC70A"/>
<path d="M16.008 11.8673L15.9867 55.1711L38.4235 33.5086L16.008 11.8673Z" fill="#FCC70A"/>
<path d="M72.4895 18.9086H66.5909L65.2976 21.7674H64.4984L69.1765 11.6104H69.9171L74.5952 21.7674H73.796L72.4886 18.9086H72.4895ZM72.2136 18.2849L69.5402 12.4227L66.8818 18.2849H72.2136Z" fill="#FCC70A"/>
<path d="M81.9192 14.1929L78.49 21.7675H77.7494L74.3353 14.1929H75.1052L78.1272 20.9693L81.1785 14.1929H81.9192Z" fill="#FCC70A"/>
<path d="M87.9914 14.8529C88.4952 15.3321 88.7471 16.0356 88.7471 16.964V21.7675H88.05V20.4182C87.8078 20.8629 87.4539 21.2093 86.9891 21.4556C86.5243 21.7019 85.9673 21.8259 85.318 21.8259C84.4753 21.8259 83.8092 21.6275 83.3205 21.2306C82.8308 20.8337 82.5869 20.3119 82.5869 19.6634C82.5869 19.0149 82.8122 18.5241 83.2628 18.1325C83.7134 17.741 84.4328 17.5452 85.42 17.5452H88.0207V16.9356C88.0207 16.2296 87.8291 15.6927 87.4468 15.325C87.0645 14.9574 86.5048 14.774 85.7686 14.774C85.2648 14.774 84.7831 14.8608 84.3228 15.0353C83.8624 15.2099 83.473 15.442 83.1528 15.7317L82.79 15.209C83.1679 14.8706 83.6229 14.6066 84.156 14.4179C84.6882 14.2292 85.2453 14.1353 85.8271 14.1353C86.7665 14.1353 87.4885 14.3745 87.9923 14.8537L87.9914 14.8529ZM87.0255 20.7947C87.4663 20.5041 87.7981 20.0833 88.0207 19.5323V18.1104H85.4342C84.6882 18.1104 84.148 18.2459 83.8145 18.517C83.4801 18.7881 83.3134 19.1602 83.3134 19.6342C83.3134 20.1081 83.497 20.5174 83.8651 20.8027C84.2332 21.088 84.7512 21.2306 85.42 21.2306C86.0498 21.2306 86.5846 21.0853 87.0255 20.7956V20.7947Z" fill="#FCC70A"/>
<path d="M91.6824 12.1826C91.5662 12.0719 91.5076 11.9337 91.5076 11.7689C91.5076 11.6041 91.5662 11.4642 91.6824 11.3481C91.7986 11.2321 91.9387 11.1736 92.1037 11.1736C92.2687 11.1736 92.4088 11.2294 92.525 11.3401C92.6412 11.4518 92.6998 11.5891 92.6998 11.7539C92.6998 11.9186 92.6412 12.0586 92.525 12.1747C92.4088 12.2907 92.2687 12.3492 92.1037 12.3492C91.9387 12.3492 91.7986 12.2934 91.6824 12.1826ZM91.74 14.1928H92.4665V21.7674H91.74V14.1928Z" fill="#FCC70A"/>
<path d="M95.5319 11H96.2583V21.7666H95.5319V11Z" fill="#FCC70A"/>
<path d="M104.045 14.8529C104.549 15.3321 104.801 16.0356 104.801 16.964V21.7675H104.104V20.4182C103.862 20.8629 103.508 21.2093 103.043 21.4556C102.578 21.7019 102.021 21.8259 101.372 21.8259C100.529 21.8259 99.8631 21.6275 99.3743 21.2306C98.8847 20.8337 98.6408 20.3119 98.6408 19.6634C98.6408 19.0149 98.8661 18.5241 99.3167 18.1325C99.7673 17.741 100.487 17.5452 101.474 17.5452H104.075V16.9356C104.075 16.2296 103.883 15.6927 103.501 15.325C103.117 14.9574 102.559 14.774 101.822 14.774C101.319 14.774 100.837 14.8608 100.377 15.0353C99.9163 15.2099 99.5269 15.442 99.2076 15.7317L98.8448 15.209C99.2227 14.8706 99.6777 14.6066 100.211 14.4179C100.743 14.2292 101.3 14.1353 101.882 14.1353C102.821 14.1353 103.543 14.3745 104.047 14.8537L104.045 14.8529ZM103.079 20.7947C103.52 20.5041 103.852 20.0833 104.075 19.5323V18.1104H101.488C100.742 18.1104 100.202 18.2459 99.8684 18.517C99.534 18.7881 99.3672 19.1602 99.3672 19.6342C99.3672 20.1081 99.5508 20.5174 99.919 20.8027C100.287 21.088 100.805 21.2306 101.474 21.2306C102.104 21.2306 102.639 21.0853 103.079 20.7956V20.7947Z" fill="#FCC70A"/>
<path d="M113.518 14.6208C114.089 14.945 114.537 15.3995 114.861 15.9851C115.186 16.5707 115.348 17.2351 115.348 17.9802C115.348 18.7252 115.186 19.3879 114.861 19.9682C114.537 20.5485 114.089 21.0038 113.518 21.3325C112.946 21.6612 112.307 21.8259 111.6 21.8259C110.893 21.8259 110.309 21.6638 109.762 21.3396C109.215 21.0153 108.791 20.5635 108.491 19.9832V21.7684H107.794V11H108.52V15.9195C108.82 15.3587 109.241 14.9211 109.784 14.6066C110.326 14.2921 110.932 14.1353 111.6 14.1353C112.307 14.1353 112.946 14.2974 113.518 14.6216V14.6208ZM113.126 20.7664C113.59 20.4953 113.956 20.1188 114.223 19.6342C114.489 19.1505 114.622 18.5994 114.622 17.9802C114.622 17.3609 114.489 16.8099 114.223 16.3262C113.957 15.8424 113.591 15.465 113.126 15.1939C112.661 14.9229 112.137 14.7873 111.556 14.7873C110.975 14.7873 110.455 14.9229 109.994 15.1939C109.534 15.465 109.171 15.8424 108.905 16.3262C108.639 16.8099 108.506 17.3618 108.506 17.9802C108.506 18.5985 108.639 19.1505 108.905 19.6342C109.171 20.1179 109.535 20.4953 109.994 20.7664C110.455 21.0375 110.975 21.173 111.556 21.173C112.137 21.173 112.661 21.0375 113.126 20.7664Z" fill="#FCC70A"/>
<path d="M117.6 11H118.326V21.7666H117.6V11Z" fill="#FCC70A"/>
<path d="M127.798 18.1539H121.275C121.295 18.7439 121.445 19.2692 121.726 19.7281C122.007 20.1879 122.387 20.5432 122.867 20.7948C123.346 21.0464 123.886 21.1722 124.486 21.1722C124.98 21.1722 125.438 21.0827 125.859 20.9038C126.281 20.7248 126.632 20.4608 126.913 20.1126L127.334 20.5919C127.005 20.9888 126.591 21.2936 126.093 21.5062C125.594 21.7188 125.054 21.8251 124.473 21.8251C123.717 21.8251 123.044 21.6603 122.453 21.3316C121.862 21.003 121.399 20.5476 121.066 19.9673C120.732 19.3871 120.565 18.7244 120.565 17.9793C120.565 17.2343 120.722 16.584 121.037 15.9984C121.352 15.4128 121.785 14.9557 122.337 14.627C122.889 14.2983 123.509 14.1335 124.196 14.1335C124.884 14.1335 125.501 14.2957 126.048 14.6199C126.596 14.9442 127.027 15.396 127.341 15.9763C127.656 16.5565 127.813 17.2148 127.813 17.9501L127.799 18.153L127.798 18.1539ZM122.757 15.1284C122.33 15.3659 121.988 15.699 121.732 16.1295C121.476 16.5601 121.328 17.0465 121.289 17.5877H127.1C127.071 17.0465 126.925 16.5627 126.665 16.1366C126.403 15.7114 126.059 15.3774 125.633 15.1355C125.206 14.8937 124.727 14.7732 124.194 14.7732C123.661 14.7732 123.182 14.8919 122.757 15.1284Z" fill="#FCC70A"/>
<path d="M134.823 21.3316C134.246 21.003 133.794 20.5458 133.465 19.9602C133.135 19.3747 132.97 18.7146 132.97 17.9793C132.97 17.244 133.135 16.584 133.465 15.9984C133.794 15.4128 134.247 14.9557 134.823 14.627C135.399 14.2983 136.045 14.1335 136.762 14.1335C137.48 14.1335 138.126 14.2983 138.702 14.627C139.279 14.9557 139.731 15.4128 140.061 15.9984C140.39 16.584 140.555 17.244 140.555 17.9793C140.555 18.7146 140.39 19.3747 140.061 19.9602C139.732 20.5458 139.279 21.003 138.702 21.3316C138.126 21.6603 137.479 21.8251 136.762 21.8251C136.046 21.8251 135.399 21.6603 134.823 21.3316ZM138.324 20.7655C138.783 20.4945 139.147 20.1179 139.413 19.6333C139.679 19.1496 139.812 18.5986 139.812 17.9793C139.812 17.3601 139.679 16.809 139.413 16.3253C139.147 15.8416 138.783 15.4642 138.324 15.1931C137.863 14.922 137.343 14.7865 136.762 14.7865C136.181 14.7865 135.66 14.922 135.2 15.1931C134.739 15.4642 134.376 15.8416 134.11 16.3253C133.844 16.809 133.711 17.361 133.711 17.9793C133.711 18.5977 133.844 19.1496 134.11 19.6333C134.376 20.1171 134.74 20.4945 135.2 20.7655C135.66 21.0366 136.181 21.1722 136.762 21.1722C137.343 21.1722 137.863 21.0366 138.324 20.7655Z" fill="#FCC70A"/>
<path d="M148.763 14.9618C149.314 15.5129 149.591 16.3067 149.591 17.3414V21.7675H148.865V17.3999C148.865 16.5485 148.649 15.9009 148.218 15.4553C147.787 15.0106 147.184 14.7882 146.41 14.7882C145.518 14.7882 144.816 15.054 144.303 15.5864C143.789 16.1189 143.533 16.8347 143.533 17.7339V21.7675H142.807V14.1929H143.504V15.8327C143.765 15.3012 144.155 14.8848 144.674 14.5844C145.192 14.285 145.805 14.1344 146.512 14.1344C147.461 14.1344 148.211 14.4099 148.764 14.9618H148.763Z" fill="#FCC70A"/>
<path d="M160.08 21.2882C159.895 21.4627 159.665 21.5956 159.39 21.6868C159.114 21.779 158.825 21.825 158.525 21.825C157.866 21.825 157.357 21.6434 156.999 21.2811C156.641 20.9179 156.462 20.4129 156.462 19.7644V14.8165H155.067V14.1928H156.462V12.5388H157.188V14.1928H159.6V14.8165H157.188V19.6917C157.188 20.1852 157.307 20.5599 157.544 20.816C157.781 21.072 158.132 21.2005 158.597 21.2005C159.063 21.2005 159.464 21.0605 159.775 20.7797L160.08 21.2873V21.2882Z" fill="#FCC70A"/>
<path d="M168.056 14.9618C168.608 15.5129 168.884 16.3067 168.884 17.3414V21.7675H168.158V17.3999C168.158 16.5485 167.942 15.9009 167.511 15.4553C167.08 15.0106 166.477 14.7882 165.703 14.7882C164.811 14.7882 164.11 15.054 163.596 15.5864C163.082 16.1189 162.826 16.8347 162.826 17.7339V21.7675H162.1V11H162.826V15.7742C163.088 15.2515 163.475 14.8484 163.988 14.5623C164.502 14.277 165.107 14.1344 165.804 14.1344C166.753 14.1344 167.503 14.4099 168.056 14.9618Z" fill="#FCC70A"/>
<path d="M178.298 18.1539H171.775C171.794 18.7439 171.944 19.2692 172.226 19.7281C172.507 20.1879 172.886 20.5432 173.366 20.7948C173.846 21.0464 174.385 21.1722 174.986 21.1722C175.48 21.1722 175.938 21.0827 176.359 20.9038C176.78 20.7248 177.132 20.4608 177.413 20.1126L177.834 20.5919C177.505 20.9888 177.091 21.2936 176.592 21.5062C176.094 21.7188 175.554 21.8251 174.973 21.8251C174.217 21.8251 173.544 21.6603 172.953 21.3316C172.362 21.003 171.899 20.5476 171.566 19.9673C171.231 19.3871 171.064 18.7244 171.064 17.9793C171.064 17.2343 171.221 16.584 171.536 15.9984C171.851 15.4128 172.285 14.9557 172.837 14.627C173.388 14.2983 174.008 14.1335 174.696 14.1335C175.383 14.1335 176.001 14.2957 176.548 14.6199C177.095 14.9442 177.526 15.396 177.841 15.9763C178.156 16.5565 178.313 17.2148 178.313 17.9501L178.299 18.153L178.298 18.1539ZM173.256 15.1284C172.83 15.3659 172.488 15.699 172.232 16.1295C171.975 16.5601 171.827 17.0465 171.788 17.5877H177.6C177.571 17.0465 177.425 16.5627 177.164 16.1366C176.903 15.7114 176.559 15.3774 176.133 15.1355C175.706 14.8937 175.227 14.7732 174.694 14.7732C174.161 14.7732 173.682 14.8919 173.256 15.1284Z" fill="#FCC70A"/>
<path d="M76.0721 39.5638H79.0569V46.3251C78.1832 47.0197 77.164 47.553 75.9994 47.9242C74.8348 48.2954 73.6373 48.4814 72.4079 48.4814C70.6765 48.4814 69.1163 48.1058 67.7255 47.3546C66.3337 46.6033 65.2418 45.565 64.4498 44.2405C63.6568 42.9161 63.2612 41.4215 63.2612 39.7569C63.2612 38.0923 63.6577 36.5986 64.4498 35.2733C65.2418 33.9488 66.3382 32.9105 67.7379 32.1592C69.1367 31.408 70.7102 31.0323 72.4576 31.0323C73.8812 31.0323 75.1754 31.2671 76.34 31.7349C77.5047 32.2035 78.483 32.8901 79.276 33.7946L77.2865 35.733C75.9923 34.4405 74.4312 33.7946 72.604 33.7946C71.4065 33.7946 70.343 34.0454 69.4134 34.5459C68.483 35.0465 67.7547 35.7499 67.2296 36.6544C66.7036 37.5598 66.4411 38.5928 66.4411 39.756C66.4411 40.9192 66.7036 41.9053 67.2296 42.8098C67.7547 43.7152 68.483 44.4257 69.4134 44.9422C70.343 45.4596 71.3985 45.7174 72.58 45.7174C73.9061 45.7174 75.0707 45.4268 76.0739 44.8447V39.562L76.0721 39.5638Z" fill="#FCC70A"/>
<path d="M85.1948 47.561C84.1428 46.9958 83.3223 46.2082 82.7316 45.1983C82.1408 44.1892 81.8464 43.0455 81.8464 41.7689C81.8464 40.4922 82.1417 39.3538 82.7316 38.3519C83.3214 37.3499 84.1428 36.5667 85.1948 36.0015C86.2459 35.4363 87.4274 35.1537 88.7375 35.1537C90.0476 35.1537 91.2521 35.4363 92.3041 36.0015C93.3552 36.5676 94.1766 37.3508 94.7673 38.3519C95.3572 39.3538 95.6526 40.4931 95.6526 41.7689C95.6526 43.0446 95.3572 44.1883 94.7673 45.1983C94.1766 46.2082 93.3561 46.9958 92.3041 47.561C91.2521 48.1271 90.0636 48.4088 88.7375 48.4088C87.4114 48.4088 86.2459 48.1262 85.1948 47.561ZM91.5032 44.7013C92.2314 43.958 92.5951 42.9808 92.5951 41.7689C92.5951 40.5569 92.2314 39.5797 91.5032 38.8365C90.7749 38.0932 89.8533 37.722 88.7375 37.722C87.6216 37.722 86.7027 38.0941 85.9833 38.8365C85.2631 39.5797 84.9039 40.5569 84.9039 41.7689C84.9039 42.9808 85.264 43.958 85.9833 44.7013C86.7027 45.4445 87.6207 45.8157 88.7375 45.8157C89.8542 45.8157 90.7758 45.4445 91.5032 44.7013Z" fill="#FCC70A"/>
<path d="M100.845 47.561C99.7932 46.9958 98.9727 46.2082 98.3819 45.1983C97.7912 44.1892 97.4967 43.0455 97.4967 41.7689C97.4967 40.4922 97.7921 39.3538 98.3819 38.3519C98.9718 37.3499 99.7932 36.5667 100.845 36.0015C101.896 35.4363 103.078 35.1537 104.388 35.1537C105.698 35.1537 106.902 35.4363 107.954 36.0015C109.006 36.5676 109.827 37.3508 110.418 38.3519C111.008 39.3538 111.303 40.4931 111.303 41.7689C111.303 43.0446 111.008 44.1883 110.418 45.1983C109.827 46.2082 109.006 46.9958 107.954 47.561C106.902 48.1271 105.714 48.4088 104.388 48.4088C103.062 48.4088 101.896 48.1262 100.845 47.561ZM107.154 44.7013C107.882 43.958 108.245 42.9808 108.245 41.7689C108.245 40.5569 107.882 39.5797 107.154 38.8365C106.425 38.0932 105.504 37.722 104.388 37.722C103.272 37.722 102.353 38.0941 101.634 38.8365C100.913 39.5797 100.554 40.5569 100.554 41.7689C100.554 42.9808 100.914 43.958 101.634 44.7013C102.353 45.4445 103.271 45.8157 104.388 45.8157C105.505 45.8157 106.426 45.4445 107.154 44.7013Z" fill="#FCC70A"/>
<path d="M127.074 35.2981V46.2764C127.074 50.8327 124.745 53.1104 120.086 53.1104C118.841 53.1104 117.659 52.9527 116.543 52.6382C115.427 52.3228 114.505 51.8666 113.777 51.2686L115.136 48.9909C115.702 49.4595 116.417 49.8352 117.283 50.1178C118.148 50.4004 119.026 50.5421 119.916 50.5421C121.338 50.5421 122.382 50.2188 123.046 49.5729C123.709 48.9262 124.04 47.9411 124.04 46.6166V45.938C123.522 46.5041 122.892 46.932 122.147 47.2226C121.403 47.5132 120.586 47.6585 119.697 47.6585C118.467 47.6585 117.355 47.3962 116.361 46.8709C115.366 46.3464 114.581 45.6067 114.007 44.6534C113.433 43.7002 113.146 42.6096 113.146 41.3817C113.146 40.1538 113.433 39.0677 114.007 38.1224C114.581 37.1771 115.366 36.4462 116.361 35.9289C117.356 35.4124 118.467 35.1537 119.697 35.1537C120.634 35.1537 121.488 35.3078 122.256 35.6144C123.025 35.9218 123.668 36.3895 124.186 37.0203V35.2999H127.073L127.074 35.2981ZM122.986 44.059C123.722 43.3724 124.09 42.4802 124.09 41.3808C124.09 40.2814 123.722 39.4176 122.986 38.739C122.249 38.0604 121.307 37.7211 120.159 37.7211C119.01 37.7211 118.043 38.0604 117.308 38.739C116.572 39.4176 116.204 40.2982 116.204 41.3808C116.204 42.4634 116.572 43.3724 117.308 44.059C118.043 44.7455 118.994 45.0893 120.159 45.0893C121.323 45.0893 122.249 44.7464 122.986 44.059Z" fill="#FCC70A"/>
<path d="M131.053 30.2572H134.085V48.2387H131.053V30.2572Z" fill="#FCC70A"/>
<path d="M150.197 42.7381H140.03C140.208 43.6913 140.673 44.447 141.425 45.0042C142.178 45.5615 143.112 45.8405 144.227 45.8405C145.651 45.8405 146.824 45.3719 147.745 44.4346L149.371 46.3003C148.789 46.9949 148.052 47.5203 147.163 47.8755C146.274 48.2308 145.271 48.4088 144.155 48.4088C142.731 48.4088 141.478 48.1262 140.394 47.561C139.31 46.9958 138.473 46.2082 137.883 45.1983C137.292 44.1892 136.998 43.0455 136.998 41.7689C136.998 40.4922 137.285 39.3742 137.859 38.3643C138.433 37.3543 139.23 36.5667 140.249 36.0015C141.268 35.4363 142.417 35.1537 143.694 35.1537C144.972 35.1537 146.084 35.4327 147.079 35.99C148.074 36.5472 148.851 37.3313 149.408 38.3403C149.966 39.3503 150.246 40.5179 150.246 41.8424C150.246 42.0524 150.23 42.3509 150.197 42.7389V42.7381ZM141.231 38.4369C140.56 39.011 140.152 39.7738 140.006 40.727H147.359C147.229 39.7906 146.833 39.0305 146.17 38.4493C145.507 37.8681 144.682 37.5767 143.695 37.5767C142.709 37.5767 141.904 37.8637 141.232 38.4369H141.231Z" fill="#FCC70A"/>
<path d="M170.979 32.0025C172.071 32.4871 172.908 33.1816 173.49 34.0861C174.073 34.9916 174.364 36.0653 174.364 37.3091C174.364 38.553 174.073 39.6072 173.49 40.5206C172.908 41.4331 172.071 42.1321 170.979 42.6167C169.887 43.1013 168.604 43.344 167.133 43.344H163.299V48.2396H160.145V31.276H167.133C168.604 31.276 169.887 31.5187 170.979 32.0033V32.0025ZM170.117 39.8056C170.829 39.2236 171.185 38.3917 171.185 37.3091C171.185 36.2265 170.83 35.3946 170.117 34.8126C169.405 34.2305 168.362 33.94 166.987 33.94H163.299V40.6774H166.987C168.362 40.6774 169.405 40.3868 170.117 39.8048V39.8056Z" fill="#FCC70A"/>
<path d="M177.469 30.2572H180.501V48.2387H177.469V30.2572Z" fill="#FCC70A"/>
<path d="M193.81 36.5224C194.821 37.4358 195.327 38.8125 195.327 40.6544V48.2396H192.464V46.6644C192.091 47.2306 191.562 47.662 190.874 47.9606C190.187 48.2591 189.357 48.4088 188.387 48.4088C187.417 48.4088 186.567 48.2432 185.839 47.9118C185.111 47.5805 184.55 47.1207 184.153 46.5307C183.757 45.9415 183.559 45.2744 183.559 44.5312C183.559 43.3679 183.992 42.4351 184.857 41.7325C185.722 41.03 187.085 40.6783 188.945 40.6783H192.293V40.4843C192.293 39.5797 192.022 38.8852 191.481 38.4006C190.939 37.916 190.134 37.6732 189.066 37.6732C188.338 37.6732 187.622 37.7866 186.919 38.0126C186.216 38.2393 185.621 38.5538 185.135 38.9578L183.947 36.7528C184.626 36.2363 185.443 35.8403 186.397 35.5656C187.352 35.291 188.363 35.1537 189.43 35.1537C191.339 35.1537 192.799 35.6099 193.81 36.5233V36.5224ZM191.044 45.6829C191.635 45.3356 192.051 44.8386 192.294 44.1927V42.6902H189.164C187.417 42.6902 186.544 43.2643 186.544 44.4107C186.544 44.9599 186.762 45.3967 187.199 45.7192C187.636 46.0425 188.242 46.2038 189.019 46.2038C189.796 46.2038 190.455 46.0301 191.045 45.6829H191.044Z" fill="#FCC70A"/>
<path d="M211.098 35.2981L205.032 49.2815C204.465 50.6874 203.778 51.6761 202.969 52.2502C202.16 52.8234 201.182 53.1104 200.033 53.1104C199.386 53.1104 198.747 53.005 198.117 52.795C197.486 52.5851 196.968 52.2945 196.563 51.9224L197.777 49.6925C198.068 49.9672 198.411 50.1851 198.808 50.3472C199.205 50.5085 199.605 50.59 200.009 50.59C200.543 50.59 200.984 50.4527 201.332 50.178C201.68 49.9034 201.999 49.4427 202.291 48.7969L202.509 48.2884L196.855 35.299H200.009L204.086 44.8714L208.187 35.299H211.099L211.098 35.2981Z" fill="#FCC70A"/>
</svg>
