<svg width="189" height="55" viewBox="0 0 189 55" fill="none" xmlns="http://www.w3.org/2000/svg">
<path d="M7.30581 0H181.694C185.726 0 189 3.13268 189 6.991V48.009C189 51.8673 185.726 55 181.694 55H7.30581C3.27375 55 0 51.8673 0 48.009V6.991C0 3.13268 3.27375 0 7.30581 0Z" fill="#FCC70A"/>
<path d="M67.612 26.4904H70.1304V32.2115C69.3932 32.7992 68.5333 33.2505 67.5506 33.5646C66.568 33.8787 65.5576 34.0361 64.5203 34.0361C63.0594 34.0361 61.743 33.7183 60.5695 33.0826C59.3952 32.4469 58.4739 31.5683 57.8056 30.4476C57.1365 29.327 56.8027 28.0623 56.8027 26.6538C56.8027 25.2452 57.1373 23.9814 57.8056 22.8599C58.4739 21.7393 59.399 20.8607 60.58 20.225C61.7602 19.5893 63.0879 19.2715 64.5622 19.2715C65.7634 19.2715 66.8554 19.4701 67.838 19.8659C68.8207 20.2625 69.6462 20.8434 70.3152 21.6088L68.6366 23.249C67.5446 22.1553 66.2274 21.6088 64.6857 21.6088C63.6754 21.6088 62.778 21.821 61.9937 22.2445C61.2086 22.668 60.5942 23.2632 60.1511 24.0286C59.7073 24.7947 59.4858 25.6688 59.4858 26.653C59.4858 27.6373 59.7073 28.4716 60.1511 29.237C60.5942 30.0031 61.2086 30.6043 61.9937 31.0414C62.778 31.4791 63.6686 31.6973 64.6655 31.6973C65.7844 31.6973 66.767 31.4514 67.6135 30.9589V26.4889L67.612 26.4904Z" fill="#1E1E1E"/>
<path d="M75.3093 33.257C74.4216 32.7788 73.7294 32.1124 73.2309 31.2578C72.7325 30.404 72.484 29.4362 72.484 28.356C72.484 27.2758 72.7332 26.3125 73.2309 25.4647C73.7286 24.6169 74.4216 23.9542 75.3093 23.4759C76.1961 22.9977 77.193 22.7585 78.2984 22.7585C79.4038 22.7585 80.4201 22.9977 81.3077 23.4759C82.1946 23.9549 82.8876 24.6176 83.3861 25.4647C83.8838 26.3125 84.133 27.2765 84.133 28.356C84.133 29.4355 83.8838 30.4032 83.3861 31.2578C82.8876 32.1124 82.1954 32.7788 81.3077 33.257C80.4201 33.7361 79.4173 33.9744 78.2984 33.9744C77.1795 33.9744 76.1961 33.7353 75.3093 33.257ZM80.6319 30.8373C81.2464 30.2083 81.5532 29.3815 81.5532 28.356C81.5532 27.3305 81.2464 26.5037 80.6319 25.8747C80.0175 25.2458 79.2399 24.9317 78.2984 24.9317C77.3569 24.9317 76.5815 25.2465 75.9746 25.8747C75.3669 26.5037 75.0638 27.3305 75.0638 28.356C75.0638 29.3815 75.3676 30.2083 75.9746 30.8373C76.5815 31.4662 77.3561 31.7803 78.2984 31.7803C79.2406 31.7803 80.0182 31.4662 80.6319 30.8373Z" fill="#1E1E1E"/>
<path d="M88.5142 33.257C87.6266 32.7788 86.9343 32.1124 86.4359 31.2578C85.9374 30.404 85.689 29.4362 85.689 28.356C85.689 27.2758 85.9382 26.3125 86.4359 25.4647C86.9336 24.6169 87.6266 23.9542 88.5142 23.4759C89.4011 22.9977 90.398 22.7585 91.5034 22.7585C92.6088 22.7585 93.6251 22.9977 94.5127 23.4759C95.3996 23.9549 96.0926 24.6176 96.591 25.4647C97.0887 26.3125 97.3379 27.2765 97.3379 28.356C97.3379 29.4355 97.0887 30.4032 96.591 31.2578C96.0926 32.1124 95.4003 32.7788 94.5127 33.257C93.6251 33.7361 92.6222 33.9744 91.5034 33.9744C90.3845 33.9744 89.4011 33.7353 88.5142 33.257ZM93.8369 30.8373C94.4513 30.2083 94.7582 29.3815 94.7582 28.356C94.7582 27.3305 94.4513 26.5037 93.8369 25.8747C93.2224 25.2458 92.4449 24.9317 91.5034 24.9317C90.5619 24.9317 89.7865 25.2465 89.1795 25.8747C88.5718 26.5037 88.2687 27.3305 88.2687 28.356C88.2687 29.3815 88.5726 30.2083 89.1795 30.8373C89.7865 31.4662 90.5611 31.7803 91.5034 31.7803C92.4456 31.7803 93.2232 31.4662 93.8369 30.8373Z" fill="#1E1E1E"/>
<path d="M110.645 22.8807V32.1701C110.645 36.0254 108.679 37.9527 104.749 37.9527C103.698 37.9527 102.701 37.8193 101.76 37.5531C100.818 37.2863 100.04 36.9002 99.4252 36.3942L100.572 34.4669C101.049 34.8635 101.653 35.1813 102.384 35.4205C103.113 35.6596 103.854 35.7795 104.605 35.7795C105.805 35.7795 106.686 35.5059 107.246 34.9594C107.806 34.4122 108.085 33.5786 108.085 32.4579V31.8837C107.648 32.3627 107.116 32.7248 106.488 32.9707C105.86 33.2166 105.171 33.3395 104.42 33.3395C103.383 33.3395 102.444 33.1176 101.605 32.6731C100.766 32.2293 100.104 31.6034 99.6198 30.7968C99.1356 29.9902 98.8931 29.0674 98.8931 28.0284C98.8931 26.9894 99.1356 26.0704 99.6198 25.2705C100.104 24.4707 100.766 23.8522 101.605 23.4145C102.445 22.9774 103.383 22.7585 104.42 22.7585C105.211 22.7585 105.932 22.889 106.58 23.1483C107.228 23.4085 107.771 23.8043 108.208 24.338V22.8822H110.644L110.645 22.8807ZM107.195 30.2938C107.816 29.7128 108.127 28.9579 108.127 28.0277C108.127 27.0974 107.816 26.3665 107.195 25.7923C106.574 25.2181 105.779 24.931 104.81 24.931C103.841 24.931 103.025 25.2181 102.405 25.7923C101.783 26.3665 101.473 27.1116 101.473 28.0277C101.473 28.9437 101.783 29.7128 102.405 30.2938C103.025 30.8747 103.827 31.1656 104.81 31.1656C105.793 31.1656 106.574 30.8755 107.195 30.2938Z" fill="#1E1E1E"/>
<path d="M114.002 18.6155H116.561V33.8306H114.002V18.6155Z" fill="#1E1E1E"/>
<path d="M130.155 29.1761H121.577C121.726 29.9827 122.119 30.6221 122.754 31.0936C123.388 31.5651 124.177 31.8013 125.118 31.8013C126.319 31.8013 127.309 31.4047 128.086 30.6116L129.458 32.1903C128.967 32.778 128.345 33.2226 127.595 33.5232C126.845 33.8238 125.998 33.9744 125.057 33.9744C123.855 33.9744 122.798 33.7353 121.883 33.257C120.969 32.7788 120.262 32.1124 119.765 31.2578C119.266 30.404 119.018 29.4362 119.018 28.356C119.018 27.2758 119.26 26.3298 119.744 25.4752C120.229 24.6206 120.902 23.9542 121.761 23.4759C122.621 22.9977 123.591 22.7585 124.668 22.7585C125.746 22.7585 126.684 22.9947 127.524 23.4662C128.363 23.9377 129.019 24.6011 129.49 25.4549C129.96 26.3095 130.196 27.2975 130.196 28.4182C130.196 28.5959 130.183 28.8485 130.155 29.1768V29.1761ZM122.59 25.5367C122.023 26.0224 121.679 26.6678 121.556 27.4744H127.76C127.651 26.6821 127.316 26.0389 126.757 25.5471C126.197 25.0554 125.501 24.8088 124.669 24.8088C123.837 24.8088 123.157 25.0516 122.591 25.5367H122.59Z" fill="#1E1E1E"/>
<path d="M147.689 20.0922C148.611 20.5023 149.317 21.09 149.808 21.8554C150.3 22.6215 150.545 23.53 150.545 24.5825C150.545 25.635 150.3 26.527 149.808 27.2999C149.317 28.072 148.611 28.6634 147.689 29.0735C146.768 29.4835 145.686 29.6889 144.444 29.6889H141.21V33.8314H138.548V19.4775H144.444C145.686 19.4775 146.768 19.6829 147.689 20.093V20.0922ZM146.963 26.6949C147.563 26.2024 147.864 25.4985 147.864 24.5825C147.864 23.6664 147.564 22.9625 146.963 22.47C146.362 21.9775 145.482 21.7317 144.322 21.7317H141.21V27.4326H144.322C145.482 27.4326 146.362 27.1867 146.963 26.6942V26.6949Z" fill="#1E1E1E"/>
<path d="M153.165 18.6155H155.724V33.8306H153.165V18.6155Z" fill="#1E1E1E"/>
<path d="M166.953 23.9167C167.807 24.6896 168.233 25.8545 168.233 27.413V33.8313H165.817V32.4984C165.503 32.9774 165.056 33.3425 164.476 33.5951C163.896 33.8477 163.196 33.9744 162.378 33.9744C161.559 33.9744 160.842 33.8343 160.228 33.5539C159.614 33.2735 159.14 32.8845 158.805 32.3852C158.471 31.8867 158.304 31.3223 158.304 30.6933C158.304 29.7091 158.669 28.9197 159.399 28.3253C160.129 27.7308 161.279 27.4332 162.848 27.4332H165.674V27.269C165.674 26.5037 165.445 25.916 164.988 25.5059C164.531 25.0959 163.852 24.8905 162.951 24.8905C162.336 24.8905 161.732 24.9864 161.139 25.1776C160.545 25.3695 160.044 25.6356 159.634 25.9774L158.631 24.1116C159.204 23.6746 159.894 23.3395 160.699 23.1071C161.504 22.8747 162.357 22.7585 163.258 22.7585C164.868 22.7585 166.1 23.1446 166.953 23.9175V23.9167ZM164.62 31.6678C165.118 31.374 165.469 30.9534 165.674 30.407V29.1356H163.033C161.559 29.1356 160.822 29.6214 160.822 30.5914C160.822 31.0561 161.007 31.4257 161.375 31.6986C161.744 31.9722 162.256 32.1086 162.911 32.1086C163.567 32.1086 164.122 31.9617 164.621 31.6678H164.62Z" fill="#1E1E1E"/>
<path d="M181.54 22.8809L176.422 34.7129C175.943 35.9026 175.364 36.7392 174.682 37.2249C173.999 37.7099 173.174 37.9528 172.204 37.9528C171.658 37.9528 171.119 37.8636 170.587 37.686C170.055 37.5083 169.618 37.2624 169.277 36.9476L170.3 35.0608C170.546 35.2932 170.835 35.4776 171.171 35.6147C171.505 35.7512 171.843 35.8201 172.184 35.8201C172.635 35.8201 173.007 35.7039 173.3 35.4716C173.593 35.2392 173.863 34.8494 174.109 34.3029L174.293 33.8726L169.523 22.8816H172.184L175.624 30.9813L179.084 22.8816H181.541L181.54 22.8809Z" fill="#1E1E1E"/>
<path d="M47.677 26.7978L40.7976 22.8218L35.1396 28.3L40.3104 33.3068L47.677 29.0482C48.0826 28.8143 48.3251 28.393 48.3251 27.9237C48.3251 27.4545 48.0826 27.0332 47.677 26.7985V26.7978Z" fill="#1E1E1E"/>
<path d="M39.6301 22.1465L32.0592 17.7694L15.4685 9.25366L34.2071 27.3968L39.6301 22.1465Z" fill="#1E1E1E"/>
<path d="M15.7438 47.0789L32.0876 38.0609L39.1428 33.9822L34.2071 29.2034L15.7438 47.0789Z" fill="#1E1E1E"/>
<path d="M14.3616 9.98755L14.3437 46.6292L33.2746 28.2994L14.3616 9.98755Z" fill="#1E1E1E"/>
</svg>
