<svg width="55" height="55" viewBox="0 0 55 55" fill="none" xmlns="http://www.w3.org/2000/svg">
<path d="M19.8926 0.827008C19.8926 0.61845 19.819 0.440588 19.6718 0.293468C19.5247 0.146347 19.3469 0.0727539 19.1383 0.0727539H18.4526C18.2441 0.0727539 18.0662 0.146325 17.9191 0.293468C17.772 0.44061 17.6984 0.61845 17.6984 0.827008V1.51269C17.6984 1.52412 17.6998 1.54128 17.7026 1.56412H17.6984V2.26695H19.8926V1.56412H19.8883C19.8912 1.54128 19.8926 1.52415 19.8926 1.51269V0.827008Z" fill="#FCC70A"/>
<path d="M24.2811 0.827008V0.0727539H22.8412C22.6326 0.0727539 22.4547 0.146325 22.3076 0.293468C22.1605 0.44061 22.0869 0.61845 22.0869 0.827008V1.51269C22.0869 1.72125 22.1605 1.89911 22.3076 2.04623C22.4548 2.19335 22.6326 2.26695 22.8412 2.26695H24.2811V0.827008Z" fill="#FCC70A"/>
<path d="M26.4754 0.0727539H24.2812V2.26695H26.4754V0.0727539Z" fill="#FCC70A"/>
<path d="M27.9154 0.0727539H26.4755V2.26695H27.9154C28.124 2.26695 28.3018 2.19335 28.4489 2.04623C28.5961 1.89911 28.6697 1.72125 28.6697 1.51269V0.827008C28.6697 0.61845 28.5961 0.440588 28.4489 0.293468C28.3018 0.146347 28.124 0.0727539 27.9154 0.0727539Z" fill="#FCC70A"/>
<path d="M37.4464 1.51269C37.4464 1.72129 37.3728 1.89911 37.2257 2.04623C37.0786 2.19333 36.9007 2.26695 36.6921 2.26695H36.0065C35.7979 2.26695 35.6201 2.19333 35.4729 2.04623C35.3258 1.89911 35.2522 1.72129 35.2522 1.51269V0.827008C35.2522 0.618472 35.3258 0.44061 35.4729 0.29349C35.6201 0.146347 35.7979 0.0727539 36.0065 0.0727539H36.6921C36.9008 0.0727539 37.0786 0.146325 37.2257 0.293468C37.3728 0.440632 37.4464 0.618472 37.4464 0.827008V1.51269Z" fill="#FCC70A"/>
<path d="M19.8926 2.26709H17.6984V3.70703C17.6984 3.91559 17.7719 4.09345 17.9191 4.24057C18.0662 4.38769 18.2441 4.46128 18.4526 4.46128H19.8926V2.26709Z" fill="#FCC70A"/>
<path d="M22.0868 3.02134C22.0868 2.81279 22.0132 2.63492 21.8661 2.4878C21.719 2.34068 21.5411 2.26709 21.3326 2.26709H19.8926V4.46128H22.0868V3.02134Z" fill="#FCC70A"/>
<path d="M22.0868 4.46143H19.8926V6.65562H22.0868V4.46143Z" fill="#FCC70A"/>
<path d="M24.2811 4.46143H22.0869V6.65562H24.2811V4.46143Z" fill="#FCC70A"/>
<path d="M26.4754 5.21568C26.4754 5.00712 26.4018 4.82926 26.2547 4.68214C26.1075 4.53502 25.9297 4.46143 25.7211 4.46143H24.2812V6.65562H26.4754V5.21568Z" fill="#FCC70A"/>
<path d="M30.8636 5.21568V4.46143H29.4236C29.2151 4.46143 29.0372 4.535 28.8901 4.68214C28.743 4.82928 28.6694 5.00712 28.6694 5.21568V6.65562H30.8636V5.21568Z" fill="#FCC70A"/>
<path d="M33.0578 5.21568C33.0578 5.00712 32.9842 4.82926 32.8371 4.68214C32.69 4.53502 32.5121 4.46143 32.3036 4.46143H30.8636V6.65562H33.0578V5.21568Z" fill="#FCC70A"/>
<path d="M19.8926 7.40953V6.65527H18.4526C18.2441 6.65527 18.0662 6.72884 17.9191 6.87599C17.772 7.02313 17.6984 7.20097 17.6984 7.40953V8.09521C17.6984 8.30377 17.7719 8.48163 17.9191 8.62875C18.0662 8.77587 18.2441 8.84947 18.4526 8.84947H19.8926V7.40953Z" fill="#FCC70A"/>
<path d="M22.0868 6.65527H19.8926V8.84947H22.0868V6.65527Z" fill="#FCC70A"/>
<path d="M26.4754 6.65527H24.2812V8.84947H26.4754V6.65527Z" fill="#FCC70A"/>
<path d="M30.8636 6.65527H28.6694V8.09521C28.6694 8.30377 28.7429 8.48163 28.8901 8.62875C29.0372 8.77587 29.2151 8.84947 29.4236 8.84947H30.8636V6.65527Z" fill="#FCC70A"/>
<path d="M33.0578 6.65527H30.8636V8.84947H33.0578V6.65527Z" fill="#FCC70A"/>
<path d="M35.2521 6.65527H33.0579V8.84947H35.2521V6.65527Z" fill="#FCC70A"/>
<path d="M37.4464 7.40953C37.4464 7.20097 37.3728 7.02311 37.2257 6.87599C37.0786 6.72887 36.9007 6.65527 36.6921 6.65527H35.2522V8.84947H37.4464V7.40953Z" fill="#FCC70A"/>
<path d="M22.0868 8.84937H19.8926V11.0436H22.0868V8.84937Z" fill="#FCC70A"/>
<path d="M26.4754 8.84937H24.2812V11.0436H26.4754V8.84937Z" fill="#FCC70A"/>
<path d="M28.6697 9.60362C28.6697 9.39506 28.5961 9.2172 28.4489 9.07008C28.3018 8.92296 28.124 8.84937 27.9154 8.84937H26.4755V11.0436H28.6697V9.60362Z" fill="#FCC70A"/>
<path d="M33.0578 8.84937H30.8636V10.2893C30.8636 10.4979 30.9372 10.6757 31.0844 10.8228C31.2315 10.97 31.4093 11.0436 31.6179 11.0436H33.0578V8.84937Z" fill="#FCC70A"/>
<path d="M35.2521 8.84937H33.0579V11.0436H35.2521V8.84937Z" fill="#FCC70A"/>
<path d="M37.4464 8.84937H35.2522V11.0436H37.4464V8.84937Z" fill="#FCC70A"/>
<path d="M22.0826 11.7465H22.0868V11.0437H19.8926V11.7465H19.8969C19.8941 11.7694 19.8926 11.7865 19.8926 11.798V12.4836C19.8926 12.6922 19.9662 12.8701 20.1134 13.0172C20.2605 13.1643 20.4383 13.2379 20.6469 13.2379H21.3326C21.5411 13.2379 21.719 13.1643 21.8661 13.0172C22.0132 12.8701 22.0868 12.6922 22.0868 12.4836V11.798C22.0868 11.7865 22.0854 11.7694 22.0826 11.7465Z" fill="#FCC70A"/>
<path d="M26.4754 11.0437H24.2812V12.4836C24.2812 12.6922 24.3548 12.8701 24.5019 13.0172C24.649 13.1643 24.8269 13.2379 25.0354 13.2379H26.4754V11.0437Z" fill="#FCC70A"/>
<path d="M28.6697 11.0437H26.4755V13.2379H28.6697V11.0437Z" fill="#FCC70A"/>
<path d="M37.4464 11.0437H35.2522V13.2379H37.4464V11.0437Z" fill="#FCC70A"/>
<path d="M19.8926 13.9923C19.8926 13.7837 19.819 13.6059 19.6718 13.4588C19.5247 13.3116 19.3469 13.238 19.1383 13.238H18.4526C18.2441 13.238 18.0662 13.3116 17.9191 13.4588C17.772 13.6059 17.6984 13.7837 17.6984 13.9923V14.678C17.6984 14.6894 17.6998 14.7066 17.7026 14.7294H17.6984V15.4322H19.8926V14.7294H19.8883C19.8912 14.7066 19.8926 14.6894 19.8926 14.678V13.9923Z" fill="#FCC70A"/>
<path d="M24.2811 14.678C24.2811 14.8866 24.2075 15.0644 24.0604 15.2115C23.9133 15.3586 23.7355 15.4322 23.5269 15.4322H22.8412C22.6326 15.4322 22.4548 15.3586 22.3076 15.2115C22.1605 15.0644 22.0869 14.8866 22.0869 14.678V13.9923C22.0869 13.7838 22.1605 13.6059 22.3076 13.4588C22.4548 13.3116 22.6326 13.238 22.8412 13.238H23.5269C23.7355 13.238 23.9133 13.3116 24.0604 13.4588C24.2075 13.6059 24.2811 13.7838 24.2811 13.9923V14.678Z" fill="#FCC70A"/>
<path d="M28.6697 13.238H26.4755V15.4322H28.6697V13.238Z" fill="#FCC70A"/>
<path d="M33.0578 14.678C33.0578 14.8866 32.9842 15.0644 32.8371 15.2115C32.69 15.3586 32.5122 15.4322 32.3036 15.4322H31.6179C31.4094 15.4322 31.2315 15.3586 31.0844 15.2115C30.9372 15.0644 30.8636 14.8866 30.8636 14.678V13.9923C30.8636 13.7838 30.9372 13.6059 31.0844 13.4588C31.2315 13.3116 31.4094 13.238 31.6179 13.238H32.3036C32.5122 13.238 32.69 13.3116 32.8371 13.4588C32.9842 13.6059 33.0578 13.7838 33.0578 13.9923V14.678Z" fill="#FCC70A"/>
<path d="M37.4464 13.238H35.2522V15.4322H37.4464V13.238Z" fill="#FCC70A"/>
<path d="M19.8926 15.4324H17.6984V16.8723C17.6984 17.0809 17.7719 17.2587 17.9191 17.4059C18.0662 17.553 18.2441 17.6266 18.4526 17.6266H19.8926V15.4324Z" fill="#FCC70A"/>
<path d="M21.3326 15.4324H19.8926V17.6266H21.3326C21.5411 17.6266 21.719 17.553 21.8661 17.4059C22.0132 17.2587 22.0868 17.0809 22.0868 16.8723V16.1866C22.0868 15.9781 22.0132 15.8002 21.8661 15.6531C21.719 15.506 21.5411 15.4324 21.3326 15.4324Z" fill="#FCC70A"/>
<path d="M28.6697 15.4324H26.4755V17.6266H28.6697V15.4324Z" fill="#FCC70A"/>
<path d="M35.2521 16.1866V15.4324H33.8122C33.6036 15.4324 33.4258 15.5059 33.2786 15.6531C33.1315 15.8002 33.0579 15.9781 33.0579 16.1866V17.6266H35.2521V16.1866Z" fill="#FCC70A"/>
<path d="M37.4464 15.4324H35.2522V17.6266H37.4464V15.4324Z" fill="#FCC70A"/>
<path d="M2.33921 18.3805C2.33921 18.1719 2.26562 17.9941 2.1185 17.8469C1.97138 17.6998 1.79352 17.6262 1.58496 17.6262H0.899273C0.690715 17.6262 0.512854 17.6998 0.365733 17.8469C0.218613 17.9941 0.14502 18.1719 0.14502 18.3805V19.0662C0.14502 19.0776 0.146446 19.0947 0.149298 19.1176H0.14502V19.8204H2.33921V19.1176H2.33493C2.33783 19.0947 2.33921 19.0776 2.33921 19.0662V18.3805Z" fill="#FCC70A"/>
<path d="M6.72776 18.3805V17.6262H5.28782C5.07926 17.6262 4.9014 17.6998 4.75428 17.8469C4.60716 17.9941 4.53357 18.1719 4.53357 18.3805V19.8204H6.72776V18.3805Z" fill="#FCC70A"/>
<path d="M8.92161 18.3805C8.92161 18.1719 8.84802 17.9941 8.7009 17.8469C8.55378 17.6998 8.37591 17.6262 8.16736 17.6262H6.72742V19.8204H8.92161V18.3805Z" fill="#FCC70A"/>
<path d="M13.3102 18.3805V17.6262H11.8702C11.6617 17.6262 11.4838 17.6998 11.3367 17.8469C11.1896 17.9941 11.116 18.1719 11.116 18.3805V19.8204H13.3102V18.3805Z" fill="#FCC70A"/>
<path d="M15.5044 17.6262H13.3102V19.8204H15.5044V17.6262Z" fill="#FCC70A"/>
<path d="M16.944 17.6262H15.5041V19.8204H16.944C17.1526 19.8204 17.3304 19.7468 17.4776 19.5997C17.6247 19.4526 17.6983 19.2747 17.6983 19.0662V18.3805C17.6983 18.1719 17.6247 17.9941 17.4776 17.8469C17.3304 17.6998 17.1526 17.6262 16.944 17.6262Z" fill="#FCC70A"/>
<path d="M26.4754 18.3805V17.6262H25.0354C24.8269 17.6262 24.649 17.6998 24.5019 17.8469C24.3548 17.9941 24.2812 18.1719 24.2812 18.3805V19.8204H26.4754V18.3805Z" fill="#FCC70A"/>
<path d="M28.6697 17.6262H26.4755V19.8204H27.9154C28.124 19.8204 28.3018 19.7468 28.4489 19.5997C28.5961 19.4526 28.6697 19.2747 28.6697 19.0662V17.6262Z" fill="#FCC70A"/>
<path d="M33.0578 18.3805V17.6262H31.6179C31.4093 17.6262 31.2315 17.6998 31.0844 17.8469C30.9372 17.9941 30.8636 18.1719 30.8636 18.3805V19.0662C30.8636 19.2747 30.9372 19.4526 31.0844 19.5997C31.2315 19.7468 31.4093 19.8204 31.6179 19.8204H33.0578V18.3805Z" fill="#FCC70A"/>
<path d="M35.2521 17.6262H33.0579V19.8204H35.2521V17.6262Z" fill="#FCC70A"/>
<path d="M37.4464 17.6262H35.2522V19.8204H36.6921C36.9007 19.8204 37.0786 19.7468 37.2257 19.5997C37.3728 19.4526 37.4464 19.2747 37.4464 19.0662V17.6262Z" fill="#FCC70A"/>
<path d="M41.8349 19.0662C41.8349 19.2748 41.7613 19.4526 41.6142 19.5997C41.4671 19.7468 41.2893 19.8204 41.0807 19.8204H40.395C40.1865 19.8204 40.0086 19.7468 39.8615 19.5997C39.7143 19.4526 39.6407 19.2748 39.6407 19.0662V18.3805C39.6407 18.1719 39.7143 17.9941 39.8615 17.847C40.0086 17.6998 40.1865 17.6262 40.395 17.6262H41.0807C41.2893 17.6262 41.4671 17.6998 41.6142 17.8469C41.7613 17.9941 41.8349 18.1719 41.8349 18.3805V19.0662Z" fill="#FCC70A"/>
<path d="M48.4173 19.0662C48.4173 19.2748 48.3437 19.4526 48.1966 19.5997C48.0495 19.7468 47.8717 19.8204 47.6631 19.8204H46.9774C46.7689 19.8204 46.591 19.7468 46.4439 19.5997C46.2967 19.4526 46.2231 19.2748 46.2231 19.0662V18.3805C46.2231 18.1719 46.2967 17.9941 46.4439 17.847C46.591 17.6998 46.7689 17.6262 46.9774 17.6262H47.6631C47.8717 17.6262 48.0495 17.6998 48.1966 17.8469C48.3437 17.9941 48.4173 18.1719 48.4173 18.3805V19.0662Z" fill="#FCC70A"/>
<path d="M52.8055 18.3805V17.6262H51.3655C51.157 17.6262 50.9791 17.6998 50.832 17.8469C50.6849 17.9941 50.6113 18.1719 50.6113 18.3805V19.8204H52.8055V18.3805Z" fill="#FCC70A"/>
<path d="M54.2455 17.6262H52.8055V19.8204H54.2455C54.454 19.8204 54.6319 19.7468 54.779 19.5997C54.9261 19.4526 54.9997 19.2747 54.9997 19.0662V18.3805C54.9997 18.1719 54.9261 17.9941 54.779 17.8469C54.6319 17.6998 54.454 17.6262 54.2455 17.6262Z" fill="#FCC70A"/>
<path d="M2.33921 19.8203H0.14502V21.2603C0.14502 21.4688 0.218591 21.6467 0.365733 21.7938C0.512876 21.9409 0.690715 22.0145 0.899273 22.0145H2.33921V19.8203Z" fill="#FCC70A"/>
<path d="M4.53349 19.8203H2.33929V22.0145H4.53349V19.8203Z" fill="#FCC70A"/>
<path d="M6.72776 19.8203H4.53357V22.0145H6.72776V19.8203Z" fill="#FCC70A"/>
<path d="M8.92161 19.8203H6.72742V22.0145H8.92161V19.8203Z" fill="#FCC70A"/>
<path d="M11.1159 19.8203H8.92169V22.0145H11.1159V19.8203Z" fill="#FCC70A"/>
<path d="M13.3102 19.8203H11.116V22.0145H13.3102V19.8203Z" fill="#FCC70A"/>
<path d="M19.8926 21.2603C19.8926 21.4689 19.8189 21.6467 19.6718 21.7938C19.5247 21.9409 19.3469 22.0145 19.1383 22.0145H18.4526C18.2441 22.0145 18.0662 21.9409 17.9191 21.7938C17.772 21.6467 17.6984 21.4689 17.6984 21.2603V20.5746C17.6984 20.366 17.7719 20.1882 17.9191 20.041C18.0662 19.8939 18.2441 19.8203 18.4526 19.8203H19.1383C19.3469 19.8203 19.5248 19.8939 19.6718 20.041C19.819 20.1882 19.8926 20.366 19.8926 20.5746V21.2603Z" fill="#FCC70A"/>
<path d="M24.2811 20.5746V19.8203H22.8412C22.6326 19.8203 22.4547 19.8939 22.3076 20.041C22.1605 20.1882 22.0869 20.366 22.0869 20.5746V21.2603C22.0869 21.4688 22.1605 21.6467 22.3076 21.7938C22.4548 21.9409 22.6326 22.0145 22.8412 22.0145H24.2811V20.5746Z" fill="#FCC70A"/>
<path d="M26.4754 19.8203H24.2812V22.0145H26.4754V19.8203Z" fill="#FCC70A"/>
<path d="M30.8636 21.2603C30.8636 21.4689 30.7899 21.6467 30.6429 21.7938C30.4957 21.9409 30.3179 22.0145 30.1093 22.0145H29.4236C29.2151 22.0145 29.0372 21.9409 28.8901 21.7938C28.743 21.6467 28.6694 21.4689 28.6694 21.2603V20.5746C28.6694 20.366 28.7429 20.1882 28.8901 20.041C29.0373 19.8939 29.2151 19.8203 29.4236 19.8203H30.1093C30.3179 19.8203 30.4958 19.8939 30.6429 20.041C30.79 20.1882 30.8636 20.366 30.8636 20.5746V21.2603Z" fill="#FCC70A"/>
<path d="M39.6407 21.2603C39.6407 21.4689 39.567 21.6467 39.42 21.7938C39.2728 21.9409 39.095 22.0145 38.8864 22.0145H38.2007C37.9922 22.0145 37.8143 21.9409 37.6672 21.7938C37.5201 21.6467 37.4465 21.4689 37.4465 21.2603V20.5746C37.4465 20.366 37.52 20.1882 37.6672 20.041C37.8144 19.8939 37.9922 19.8203 38.2007 19.8203H38.8864C39.095 19.8203 39.2729 19.8939 39.42 20.041C39.5671 20.1882 39.6407 20.366 39.6407 20.5746V21.2603Z" fill="#FCC70A"/>
<path d="M44.0288 20.5746C44.0288 20.366 43.9552 20.1881 43.8081 20.041C43.661 19.8939 43.4831 19.8203 43.2745 19.8203H42.5888C42.3803 19.8203 42.2024 19.8939 42.0553 20.041C41.9082 20.1882 41.8346 20.366 41.8346 20.5746V21.2603C41.8346 21.2717 41.836 21.2888 41.8389 21.3117H41.8346V22.0145H44.0288V21.3117H44.0245C44.0274 21.2888 44.0288 21.2717 44.0288 21.2603V20.5746Z" fill="#FCC70A"/>
<path d="M52.8012 20.5231H52.8055V19.8203H50.6113V20.5231H50.6155C50.6127 20.546 50.6113 20.5631 50.6113 20.5746V21.2603C50.6113 21.4688 50.6848 21.6467 50.832 21.7938C50.9791 21.9409 51.157 22.0145 51.3655 22.0145H52.0512C52.2598 22.0145 52.4376 21.9409 52.5847 21.7938C52.7319 21.6467 52.8055 21.4688 52.8055 21.2603V20.5746C52.8055 20.5631 52.8041 20.546 52.8012 20.5231Z" fill="#FCC70A"/>
<path d="M8.91733 22.7175H8.92161V22.0146H6.72742V22.7175H6.7317C6.72884 22.7403 6.72742 22.7575 6.72742 22.7689V23.4546C6.72742 23.6631 6.80099 23.841 6.94813 23.9881C7.09527 24.1352 7.27311 24.2088 7.48167 24.2088H8.16736C8.37591 24.2088 8.55378 24.1352 8.7009 23.9881C8.84802 23.841 8.92161 23.6631 8.92161 23.4546V22.7689C8.92161 22.7575 8.92023 22.7403 8.91733 22.7175Z" fill="#FCC70A"/>
<path d="M13.3102 22.0146H11.116V24.2088H13.3102V22.0146Z" fill="#FCC70A"/>
<path d="M14.7502 22.0146H13.3102V24.2088H14.7502C14.9587 24.2088 15.1366 24.1352 15.2837 23.9881C15.4308 23.841 15.5044 23.6631 15.5044 23.4546V22.7689C15.5044 22.5603 15.4308 22.3825 15.2837 22.2354C15.1366 22.0882 14.9587 22.0146 14.7502 22.0146Z" fill="#FCC70A"/>
<path d="M22.0868 23.4546C22.0868 23.6632 22.0132 23.841 21.8661 23.9881C21.719 24.1352 21.5412 24.2088 21.3326 24.2088H20.6469C20.4384 24.2088 20.2605 24.1352 20.1134 23.9881C19.9662 23.841 19.8926 23.6632 19.8926 23.4546V22.7689C19.8926 22.5604 19.9662 22.3825 20.1134 22.2354C20.2605 22.0882 20.4384 22.0146 20.6469 22.0146H21.3326C21.5412 22.0146 21.719 22.0882 21.8661 22.2354C22.0132 22.3825 22.0868 22.5604 22.0868 22.7689V23.4546Z" fill="#FCC70A"/>
<path d="M26.4754 22.0146H24.2812V24.2088H26.4754V22.0146Z" fill="#FCC70A"/>
<path d="M27.9154 22.0146H26.4755V24.2088H27.9154C28.124 24.2088 28.3018 24.1352 28.4489 23.9881C28.5961 23.841 28.6697 23.6631 28.6697 23.4546V22.7689C28.6697 22.5603 28.5961 22.3825 28.4489 22.2354C28.3018 22.0882 28.124 22.0146 27.9154 22.0146Z" fill="#FCC70A"/>
<path d="M33.0578 23.4546C33.0578 23.6632 32.9842 23.841 32.8371 23.9881C32.69 24.1352 32.5122 24.2088 32.3036 24.2088H31.6179C31.4094 24.2088 31.2315 24.1352 31.0844 23.9881C30.9372 23.841 30.8636 23.6632 30.8636 23.4546V22.7689C30.8636 22.5604 30.9372 22.3825 31.0844 22.2354C31.2315 22.0882 31.4094 22.0146 31.6179 22.0146H32.3036C32.5122 22.0146 32.69 22.0882 32.8371 22.2354C32.9842 22.3825 33.0578 22.5604 33.0578 22.7689V23.4546Z" fill="#FCC70A"/>
<path d="M37.4464 23.4546C37.4464 23.6632 37.3728 23.841 37.2257 23.9881C37.0786 24.1352 36.9007 24.2088 36.6921 24.2088H36.0065C35.7979 24.2088 35.6201 24.1352 35.4729 23.9881C35.3258 23.841 35.2522 23.6632 35.2522 23.4546V22.7689C35.2522 22.5604 35.3258 22.3825 35.4729 22.2354C35.6201 22.0882 35.7979 22.0146 36.0065 22.0146H36.6921C36.9008 22.0146 37.0786 22.0882 37.2257 22.2354C37.3728 22.3825 37.4464 22.5604 37.4464 22.7689V23.4546Z" fill="#FCC70A"/>
<path d="M44.0288 22.0146H41.8346V23.4546C41.8346 23.6631 41.9082 23.841 42.0553 23.9881C42.2025 24.1352 42.3803 24.2088 42.5888 24.2088H44.0288V22.0146Z" fill="#FCC70A"/>
<path d="M45.4688 22.0146H44.0289V24.2088H45.4688C45.6774 24.2088 45.8552 24.1352 46.0023 23.9881C46.1495 23.841 46.2231 23.6631 46.2231 23.4546V22.7689C46.2231 22.5603 46.1495 22.3825 46.0023 22.2354C45.8552 22.0882 45.6774 22.0146 45.4688 22.0146Z" fill="#FCC70A"/>
<path d="M2.33921 25.6489C2.33921 25.8575 2.2656 26.0353 2.1185 26.1825C1.97138 26.3296 1.79356 26.4032 1.58496 26.4032H0.899273C0.690737 26.4032 0.512876 26.3296 0.365755 26.1825C0.218613 26.0353 0.14502 25.8575 0.14502 25.6489V24.9632C0.14502 24.7547 0.218591 24.5768 0.365733 24.4297C0.512898 24.2826 0.690737 24.209 0.899273 24.209H1.58496C1.79358 24.209 1.97142 24.2826 2.1185 24.4297C2.26562 24.5769 2.33921 24.7547 2.33921 24.9632V25.6489Z" fill="#FCC70A"/>
<path d="M6.72776 25.6489C6.72776 25.8575 6.65415 26.0353 6.50705 26.1825C6.35993 26.3296 6.18211 26.4032 5.97351 26.4032H5.28782C5.07929 26.4032 4.90143 26.3296 4.75431 26.1825C4.60716 26.0353 4.53357 25.8575 4.53357 25.6489V24.9632C4.53357 24.7547 4.60714 24.5768 4.75428 24.4297C4.90145 24.2826 5.07929 24.209 5.28782 24.209H5.97351C6.18213 24.209 6.35997 24.2826 6.50705 24.4297C6.65417 24.5769 6.72776 24.7547 6.72776 24.9632V25.6489Z" fill="#FCC70A"/>
<path d="M11.1159 24.9632V24.209H9.67595C9.46739 24.209 9.28953 24.2826 9.14241 24.4297C8.99529 24.5768 8.92169 24.7547 8.92169 24.9632V25.6489C8.92169 25.8575 8.99526 26.0353 9.14241 26.1825C9.28955 26.3296 9.46739 26.4032 9.67595 26.4032H11.1159V24.9632Z" fill="#FCC70A"/>
<path d="M13.3102 24.209H11.116V26.4032H13.3102V24.209Z" fill="#FCC70A"/>
<path d="M19.8926 25.6489C19.8926 25.8575 19.8189 26.0353 19.6718 26.1825C19.5247 26.3296 19.3469 26.4032 19.1383 26.4032H18.4526C18.2441 26.4032 18.0662 26.3296 17.9191 26.1825C17.772 26.0353 17.6984 25.8575 17.6984 25.6489V24.9632C17.6984 24.7547 17.7719 24.5768 17.9191 24.4297C18.0662 24.2826 18.2441 24.209 18.4526 24.209H19.1383C19.3469 24.209 19.5248 24.2826 19.6718 24.4297C19.819 24.5769 19.8926 24.7547 19.8926 24.9632V25.6489Z" fill="#FCC70A"/>
<path d="M24.2811 24.9632V24.209H22.8412C22.6326 24.209 22.4547 24.2826 22.3076 24.4297C22.1605 24.5768 22.0869 24.7547 22.0869 24.9632V26.4032H24.2811V24.9632Z" fill="#FCC70A"/>
<path d="M26.4754 24.209H24.2812V26.4032H25.7211C25.9297 26.4032 26.1075 26.3296 26.2547 26.1825C26.4018 26.0353 26.4754 25.8575 26.4754 25.6489V24.209Z" fill="#FCC70A"/>
<path d="M30.8636 25.6489C30.8636 25.8575 30.7899 26.0353 30.6429 26.1825C30.4957 26.3296 30.3179 26.4032 30.1093 26.4032H29.4236C29.2151 26.4032 29.0372 26.3296 28.8901 26.1825C28.743 26.0353 28.6694 25.8575 28.6694 25.6489V24.9632C28.6694 24.7547 28.7429 24.5768 28.8901 24.4297C29.0373 24.2826 29.2151 24.209 29.4236 24.209H30.1093C30.3179 24.209 30.4958 24.2826 30.6429 24.4297C30.79 24.5769 30.8636 24.7547 30.8636 24.9632V25.6489Z" fill="#FCC70A"/>
<path d="M48.4173 24.9632V24.209H46.9774C46.7688 24.209 46.591 24.2826 46.4439 24.4297C46.2967 24.5768 46.2231 24.7547 46.2231 24.9632V25.6489C46.2231 25.8575 46.2967 26.0353 46.4439 26.1825C46.591 26.3296 46.7688 26.4032 46.9774 26.4032H48.4173V24.9632Z" fill="#FCC70A"/>
<path d="M50.6116 24.9632C50.6116 24.7547 50.538 24.5768 50.3909 24.4297C50.2438 24.2826 50.0659 24.209 49.8574 24.209H48.4174V26.4032H50.6116V24.9632Z" fill="#FCC70A"/>
<path d="M4.53349 27.8433C4.53349 28.0519 4.45987 28.2297 4.31277 28.3768C4.16565 28.5239 3.98784 28.5975 3.77923 28.5975H3.09355C2.88501 28.5975 2.70715 28.5239 2.56003 28.3768C2.41289 28.2297 2.33929 28.0519 2.33929 27.8433V27.1576C2.33929 26.949 2.41287 26.7712 2.56001 26.6241C2.70717 26.4769 2.88501 26.4033 3.09355 26.4033H3.77923C3.98786 26.4033 4.1657 26.4769 4.31277 26.624C4.45989 26.7712 4.53349 26.949 4.53349 27.1576V27.8433Z" fill="#FCC70A"/>
<path d="M8.92161 27.8433C8.92161 28.0519 8.84799 28.2297 8.7009 28.3768C8.55378 28.5239 8.37596 28.5975 8.16736 28.5975H7.48167C7.27313 28.5975 7.09527 28.5239 6.94815 28.3768C6.80101 28.2297 6.72742 28.0519 6.72742 27.8433V27.1576C6.72742 26.949 6.80099 26.7712 6.94813 26.6241C7.0953 26.4769 7.27313 26.4033 7.48167 26.4033H8.16736C8.37598 26.4033 8.55382 26.4769 8.7009 26.624C8.84802 26.7712 8.92161 26.949 8.92161 27.1576V27.8433Z" fill="#FCC70A"/>
<path d="M13.3102 26.4033H11.116V28.5975H13.3102V26.4033Z" fill="#FCC70A"/>
<path d="M15.5044 26.4033H13.3102V28.5975H15.5044V26.4033Z" fill="#FCC70A"/>
<path d="M17.6983 27.1576C17.6983 26.949 17.6247 26.7712 17.4776 26.624C17.3304 26.4769 17.1526 26.4033 16.944 26.4033H15.5041V28.5975H17.6983V27.1576Z" fill="#FCC70A"/>
<path d="M22.0868 27.1576V26.4033H20.6469C20.4383 26.4033 20.2605 26.4769 20.1134 26.624C19.9662 26.7712 19.8926 26.949 19.8926 27.1576V28.5975H22.0868V27.1576Z" fill="#FCC70A"/>
<path d="M24.2811 26.4033H22.0869V28.5975H23.5269C23.7354 28.5975 23.9133 28.5239 24.0604 28.3768C24.2075 28.2297 24.2811 28.0518 24.2811 27.8433V26.4033Z" fill="#FCC70A"/>
<path d="M35.2521 27.1576C35.2521 26.949 35.1785 26.7712 35.0314 26.624C34.8843 26.4769 34.7064 26.4033 34.4979 26.4033H33.8122C33.6036 26.4033 33.4258 26.4769 33.2786 26.624C33.1315 26.7712 33.0579 26.949 33.0579 27.1576V27.8433C33.0579 27.8547 33.0593 27.8718 33.0622 27.8947H33.0579V28.5975H35.2521V27.8947H35.2478C35.2507 27.8718 35.2521 27.8547 35.2521 27.8433V27.1576Z" fill="#FCC70A"/>
<path d="M39.6407 27.1576V26.4033H38.2007C37.9922 26.4033 37.8143 26.4769 37.6672 26.624C37.5201 26.7712 37.4465 26.949 37.4465 27.1576V27.8433C37.4465 28.0518 37.52 28.2297 37.6672 28.3768C37.8143 28.5239 37.9922 28.5975 38.2007 28.5975H39.6407V27.1576Z" fill="#FCC70A"/>
<path d="M41.8349 27.1576C41.8349 26.949 41.7613 26.7712 41.6142 26.624C41.4671 26.4769 41.2892 26.4033 41.0807 26.4033H39.6407V28.5975H41.8349V27.1576Z" fill="#FCC70A"/>
<path d="M46.2231 27.1576C46.2231 26.949 46.1495 26.7712 46.0023 26.624C45.8552 26.4769 45.6774 26.4033 45.4688 26.4033H44.7831C44.5746 26.4033 44.3967 26.4769 44.2496 26.624C44.1025 26.7712 44.0289 26.949 44.0289 27.1576V27.8433C44.0289 27.8547 44.0303 27.8718 44.0331 27.8947H44.0289V28.5975H46.2231V27.8947H46.2188C46.2217 27.8718 46.2231 27.8547 46.2231 27.8433V27.1576Z" fill="#FCC70A"/>
<path d="M50.6116 26.4033H48.4174V27.8433C48.4174 28.0518 48.491 28.2297 48.6381 28.3768C48.7853 28.5239 48.9631 28.5975 49.1717 28.5975H50.6116V26.4033Z" fill="#FCC70A"/>
<path d="M52.8055 26.4033H50.6113V28.5975H52.8055V26.4033Z" fill="#FCC70A"/>
<path d="M54.9997 27.1576C54.9997 26.949 54.9261 26.7712 54.779 26.624C54.6319 26.4769 54.454 26.4033 54.2455 26.4033H52.8055V28.5975H54.9997V27.1576Z" fill="#FCC70A"/>
<path d="M13.3102 28.5972H11.116V30.7914H13.3102V28.5972Z" fill="#FCC70A"/>
<path d="M17.6983 28.5972H15.5041V30.7914H17.6983V28.5972Z" fill="#FCC70A"/>
<path d="M19.8926 28.5972H17.6984V30.7914H19.8926V28.5972Z" fill="#FCC70A"/>
<path d="M22.0868 28.5972H19.8926V30.7914H21.3326C21.5411 30.7914 21.719 30.7178 21.8661 30.5706C22.0132 30.4235 22.0868 30.2457 22.0868 30.0371V28.5972Z" fill="#FCC70A"/>
<path d="M26.4754 30.0371C26.4754 30.2457 26.4018 30.4235 26.2547 30.5706C26.1075 30.7177 25.9297 30.7914 25.7211 30.7914H25.0354C24.8269 30.7914 24.649 30.7177 24.5019 30.5706C24.3548 30.4235 24.2812 30.2457 24.2812 30.0371V29.3514C24.2812 29.1429 24.3548 28.965 24.5019 28.8179C24.6491 28.6708 24.8269 28.5972 25.0354 28.5972H25.7211C25.9298 28.5972 26.1076 28.6707 26.2547 28.8179C26.4018 28.965 26.4754 29.1429 26.4754 29.3514V30.0371Z" fill="#FCC70A"/>
<path d="M30.8636 29.3514V28.5972H29.4236C29.2151 28.5972 29.0372 28.6707 28.8901 28.8179C28.743 28.965 28.6694 29.1429 28.6694 29.3514V30.0371C28.6694 30.2457 28.7429 30.4235 28.8901 30.5706C29.0372 30.7178 29.2151 30.7914 29.4236 30.7914H30.8636V29.3514Z" fill="#FCC70A"/>
<path d="M33.0578 28.5972H30.8636V30.7914H33.0578V28.5972Z" fill="#FCC70A"/>
<path d="M35.2521 28.5972H33.0579V30.7914H35.2521V28.5972Z" fill="#FCC70A"/>
<path d="M36.6921 28.5972H35.2522V30.7914H36.6921C36.9007 30.7914 37.0786 30.7178 37.2257 30.5706C37.3728 30.4235 37.4464 30.2457 37.4464 30.0371V29.3514C37.4464 29.1429 37.3728 28.965 37.2257 28.8179C37.0786 28.6708 36.9007 28.5972 36.6921 28.5972Z" fill="#FCC70A"/>
<path d="M41.8349 28.5972H39.6407V30.0371C39.6407 30.2457 39.7143 30.4235 39.8615 30.5706C40.0086 30.7178 40.1864 30.7914 40.395 30.7914H41.8349V28.5972Z" fill="#FCC70A"/>
<path d="M44.0288 28.5972H41.8346V30.7914H44.0288V28.5972Z" fill="#FCC70A"/>
<path d="M46.2231 28.5972H44.0289V30.7914H46.2231V28.5972Z" fill="#FCC70A"/>
<path d="M54.9955 29.3H54.9997V28.5972H52.8055V29.3H52.8098C52.807 29.3229 52.8055 29.34 52.8055 29.3514V30.0371C52.8055 30.2457 52.8791 30.4235 53.0263 30.5706C53.1734 30.7178 53.3512 30.7914 53.5598 30.7914H54.2455C54.454 30.7914 54.6319 30.7178 54.779 30.5706C54.9261 30.4235 54.9997 30.2457 54.9997 30.0371V29.3514C54.9997 29.34 54.9984 29.3229 54.9955 29.3Z" fill="#FCC70A"/>
<path d="M4.53349 32.2312C4.53349 32.4398 4.45987 32.6176 4.31277 32.7647C4.16565 32.9118 3.98784 32.9855 3.77923 32.9855H3.09355C2.88501 32.9855 2.70715 32.9118 2.56003 32.7647C2.41289 32.6176 2.33929 32.4398 2.33929 32.2312V31.5455C2.33929 31.337 2.41287 31.1591 2.56001 31.012C2.70717 30.8649 2.88501 30.7913 3.09355 30.7913H3.77923C3.98786 30.7913 4.1657 30.8648 4.31277 31.012C4.45989 31.1591 4.53349 31.337 4.53349 31.5455V32.2312Z" fill="#FCC70A"/>
<path d="M8.92161 31.5455V30.7913H7.48167C7.27311 30.7913 7.09525 30.8648 6.94813 31.012C6.80101 31.1591 6.72742 31.337 6.72742 31.5455V32.9855H8.92161V31.5455Z" fill="#FCC70A"/>
<path d="M11.1159 30.7913H8.92169V32.9855H11.1159V30.7913Z" fill="#FCC70A"/>
<path d="M13.3102 30.7913H11.116V32.9855H13.3102V30.7913Z" fill="#FCC70A"/>
<path d="M15.5044 30.7913H13.3102V32.9855H15.5044V30.7913Z" fill="#FCC70A"/>
<path d="M17.6983 30.7913H15.5041V32.9855H17.6983V30.7913Z" fill="#FCC70A"/>
<path d="M28.6697 31.5455C28.6697 31.337 28.5961 31.1591 28.4489 31.012C28.3018 30.8649 28.124 30.7913 27.9154 30.7913H27.2297C27.0212 30.7913 26.8433 30.8648 26.6962 31.012C26.5491 31.1591 26.4755 31.337 26.4755 31.5455V32.2312C26.4755 32.2426 26.4769 32.2598 26.4797 32.2826H26.4755V32.9855H28.6697V32.2826H28.6654C28.6683 32.2598 28.6697 32.2427 28.6697 32.2312V31.5455Z" fill="#FCC70A"/>
<path d="M33.0536 31.4941H33.0578V30.7913H30.8636V31.4941H30.8679C30.8651 31.5169 30.8636 31.5341 30.8636 31.5455V32.2312C30.8636 32.4398 30.9372 32.6176 31.0844 32.7647C31.2315 32.9119 31.4093 32.9855 31.6179 32.9855H32.3036C32.5121 32.9855 32.69 32.9119 32.8371 32.7647C32.9842 32.6176 33.0578 32.4398 33.0578 32.2312V31.5455C33.0578 31.5341 33.0565 31.5169 33.0536 31.4941Z" fill="#FCC70A"/>
<path d="M46.2188 31.4941H46.2231V30.7913H44.0289V31.4941H44.0331C44.0303 31.5169 44.0289 31.5341 44.0289 31.5455V32.2312C44.0289 32.4398 44.1024 32.6176 44.2496 32.7647C44.3967 32.9119 44.5746 32.9855 44.7831 32.9855H45.4688C45.6774 32.9855 45.8552 32.9119 46.0023 32.7647C46.1495 32.6176 46.2231 32.4398 46.2231 32.2312V31.5455C46.2231 31.5341 46.2217 31.5169 46.2188 31.4941Z" fill="#FCC70A"/>
<path d="M50.6116 31.5455V30.7913H49.1717C48.9631 30.7913 48.7853 30.8648 48.6381 31.012C48.491 31.1591 48.4174 31.337 48.4174 31.5455V32.2312C48.4174 32.4398 48.491 32.6176 48.6381 32.7647C48.7853 32.9119 48.9631 32.9855 49.1717 32.9855H50.6116V31.5455Z" fill="#FCC70A"/>
<path d="M52.0512 30.7913H50.6113V32.9855H52.0512C52.2598 32.9855 52.4376 32.9119 52.5847 32.7647C52.7319 32.6176 52.8055 32.4398 52.8055 32.2312V31.5455C52.8055 31.337 52.7319 31.1591 52.5847 31.012C52.4376 30.8649 52.2598 30.7913 52.0512 30.7913Z" fill="#FCC70A"/>
<path d="M2.33921 34.4255C2.33921 34.6341 2.2656 34.812 2.1185 34.9591C1.97138 35.1062 1.79356 35.1798 1.58496 35.1798H0.899273C0.690737 35.1798 0.512876 35.1062 0.365755 34.9591C0.218613 34.812 0.14502 34.6341 0.14502 34.4255V33.7398C0.14502 33.5313 0.218591 33.3535 0.365733 33.2063C0.512898 33.0592 0.690737 32.9856 0.899273 32.9856H1.58496C1.79358 32.9856 1.97142 33.0592 2.1185 33.2063C2.26562 33.3535 2.33921 33.5313 2.33921 33.7398V34.4255Z" fill="#FCC70A"/>
<path d="M6.72776 33.7398V32.9856H5.28782C5.07926 32.9856 4.9014 33.0592 4.75428 33.2063C4.60716 33.3535 4.53357 33.5313 4.53357 33.7398V34.4255C4.53357 34.6341 4.60714 34.812 4.75428 34.9591C4.90143 35.1062 5.07926 35.1798 5.28782 35.1798H6.72776V33.7398Z" fill="#FCC70A"/>
<path d="M8.92161 32.9856H6.72742V35.1798H8.92161V32.9856Z" fill="#FCC70A"/>
<path d="M11.1159 32.9856H8.92169V35.1798H10.3616C10.5702 35.1798 10.748 35.1062 10.8952 34.9591C11.0423 34.812 11.1159 34.6341 11.1159 34.4255V32.9856Z" fill="#FCC70A"/>
<path d="M17.694 33.6884H17.6983V32.9856H15.5041V33.6884H15.5084C15.5055 33.7113 15.5041 33.7284 15.5041 33.7398V34.4255C15.5041 34.6341 15.5777 34.812 15.7248 34.9591C15.8719 35.1062 16.0498 35.1798 16.2583 35.1798H16.944C17.1526 35.1798 17.3304 35.1062 17.4776 34.9591C17.6247 34.812 17.6983 34.6341 17.6983 34.4255V33.7398C17.6983 33.7284 17.6969 33.7113 17.694 33.6884Z" fill="#FCC70A"/>
<path d="M28.6697 32.9856H26.4755V34.4255C26.4755 34.6341 26.549 34.812 26.6962 34.9591C26.8433 35.1062 27.0212 35.1798 27.2297 35.1798H28.6697V32.9856Z" fill="#FCC70A"/>
<path d="M30.1093 32.9856H28.6694V35.1798H30.1093C30.3179 35.1798 30.4957 35.1062 30.6429 34.9591C30.79 34.812 30.8636 34.6341 30.8636 34.4255V33.7398C30.8636 33.5313 30.79 33.3534 30.6429 33.2063C30.4957 33.0592 30.3179 32.9856 30.1093 32.9856Z" fill="#FCC70A"/>
<path d="M41.8349 33.7398V32.9856H40.395C40.1864 32.9856 40.0086 33.0592 39.8615 33.2063C39.7143 33.3535 39.6407 33.5313 39.6407 33.7398V35.1798H41.8349V33.7398Z" fill="#FCC70A"/>
<path d="M44.0288 33.7398C44.0288 33.5313 43.9552 33.3534 43.8081 33.2063C43.661 33.0592 43.4831 32.9856 43.2745 32.9856H41.8346V35.1798H44.0288V33.7398Z" fill="#FCC70A"/>
<path d="M48.4173 33.7398C48.4173 33.5313 48.3437 33.3534 48.1966 33.2063C48.0495 33.0592 47.8716 32.9856 47.6631 32.9856H46.9774C46.7688 32.9856 46.591 33.0592 46.4439 33.2063C46.2967 33.3535 46.2231 33.5313 46.2231 33.7398V34.4255C46.2231 34.437 46.2246 34.4541 46.2274 34.477H46.2231V35.1798H48.4173V34.477H48.4131C48.416 34.4541 48.4173 34.437 48.4173 34.4255V33.7398Z" fill="#FCC70A"/>
<path d="M54.9997 33.7398C54.9997 33.5313 54.9261 33.3534 54.779 33.2063C54.6319 33.0592 54.454 32.9856 54.2455 32.9856H53.5598C53.3512 32.9856 53.1734 33.0592 53.0263 33.2063C52.8791 33.3535 52.8055 33.5313 52.8055 33.7398V34.4255C52.8055 34.437 52.807 34.4541 52.8098 34.477H52.8055V35.1798H54.9997V34.477H54.9955C54.9984 34.4541 54.9997 34.437 54.9997 34.4255V33.7398Z" fill="#FCC70A"/>
<path d="M13.3102 35.9342V35.1799H11.8702C11.6617 35.1799 11.4838 35.2535 11.3367 35.4006C11.1896 35.5478 11.116 35.7256 11.116 35.9342V36.6199C11.116 36.8284 11.1895 37.0063 11.3367 37.1534C11.4838 37.3005 11.6617 37.3741 11.8702 37.3741H13.3102V35.9342Z" fill="#FCC70A"/>
<path d="M14.7502 35.1799H13.3102V37.3741H14.7502C14.9587 37.3741 15.1366 37.3005 15.2837 37.1534C15.4308 37.0063 15.5044 36.8284 15.5044 36.6199V35.9342C15.5044 35.7256 15.4308 35.5478 15.2837 35.4006C15.1366 35.2535 14.9587 35.1799 14.7502 35.1799Z" fill="#FCC70A"/>
<path d="M19.8926 35.9342C19.8926 35.7256 19.819 35.5478 19.6718 35.4006C19.5247 35.2535 19.3469 35.1799 19.1383 35.1799H18.4526C18.2441 35.1799 18.0662 35.2535 17.9191 35.4006C17.772 35.5478 17.6984 35.7256 17.6984 35.9342V36.6199C17.6984 36.6313 17.6998 36.6485 17.7026 36.6713H17.6984V37.3741H19.8926V36.6713H19.8883C19.8912 36.6485 19.8926 36.6313 19.8926 36.6199V35.9342Z" fill="#FCC70A"/>
<path d="M24.2811 35.9342V35.1799H22.8412C22.6326 35.1799 22.4547 35.2535 22.3076 35.4006C22.1605 35.5478 22.0869 35.7256 22.0869 35.9342V37.3741H24.2811V35.9342Z" fill="#FCC70A"/>
<path d="M25.7211 35.1799H24.2812V37.3741H25.7211C25.9297 37.3741 26.1075 37.3005 26.2547 37.1534C26.4018 37.0063 26.4754 36.8284 26.4754 36.6199V35.9342C26.4754 35.7256 26.4018 35.5478 26.2547 35.4006C26.1075 35.2535 25.9297 35.1799 25.7211 35.1799Z" fill="#FCC70A"/>
<path d="M37.4464 35.9342V35.1799H36.0065C35.7979 35.1799 35.62 35.2535 35.4729 35.4006C35.3258 35.5478 35.2522 35.7256 35.2522 35.9342V37.3741H37.4464V35.9342Z" fill="#FCC70A"/>
<path d="M39.6407 35.1799H37.4465V37.3741H39.6407V35.1799Z" fill="#FCC70A"/>
<path d="M41.8349 35.1799H39.6407V37.3741H41.8349V35.1799Z" fill="#FCC70A"/>
<path d="M44.0288 35.1799H41.8346V37.3741H44.0288V35.1799Z" fill="#FCC70A"/>
<path d="M46.2231 35.1799H44.0289V37.3741H46.2231V35.1799Z" fill="#FCC70A"/>
<path d="M48.4173 35.1799H46.2231V37.3741H48.4173V35.1799Z" fill="#FCC70A"/>
<path d="M50.6116 35.1799H48.4174V37.3741H50.6116V35.1799Z" fill="#FCC70A"/>
<path d="M52.8055 35.1799H50.6113V37.3741H52.8055V35.1799Z" fill="#FCC70A"/>
<path d="M54.9997 35.1799H52.8055V37.3741H54.9997V35.1799Z" fill="#FCC70A"/>
<path d="M19.8926 37.3743H17.6984V39.5685H19.8926V37.3743Z" fill="#FCC70A"/>
<path d="M24.2811 37.3743H22.0869V39.5685H24.2811V37.3743Z" fill="#FCC70A"/>
<path d="M28.6697 38.1285V37.3743H27.2297C27.0212 37.3743 26.8433 37.4478 26.6962 37.595C26.5491 37.7421 26.4755 37.92 26.4755 38.1285V39.5685H28.6697V38.1285Z" fill="#FCC70A"/>
<path d="M30.1093 37.3743H28.6694V39.5685H30.1093C30.3179 39.5685 30.4957 39.4949 30.6429 39.3477C30.79 39.2006 30.8636 39.0228 30.8636 38.8142V38.1285C30.8636 37.92 30.79 37.7421 30.6429 37.595C30.4957 37.4479 30.3179 37.3743 30.1093 37.3743Z" fill="#FCC70A"/>
<path d="M37.4464 37.3743H35.2522V39.5685H37.4464V37.3743Z" fill="#FCC70A"/>
<path d="M46.2231 37.3743H44.0289V39.5685H46.2231V37.3743Z" fill="#FCC70A"/>
<path d="M54.9997 37.3743H52.8055V39.5685H54.9997V37.3743Z" fill="#FCC70A"/>
<path d="M19.8926 39.5681H17.6984V41.7623H19.8926V39.5681Z" fill="#FCC70A"/>
<path d="M22.0868 39.5681H19.8926V41.7623H22.0868V39.5681Z" fill="#FCC70A"/>
<path d="M24.2811 39.5681H22.0869V41.7623H24.2811V39.5681Z" fill="#FCC70A"/>
<path d="M26.4754 39.5681H24.2812V41.7623H26.4754V39.5681Z" fill="#FCC70A"/>
<path d="M28.6697 39.5681H26.4755V41.7623H28.6697V39.5681Z" fill="#FCC70A"/>
<path d="M37.4464 39.5681H35.2522V41.7623H37.4464V39.5681Z" fill="#FCC70A"/>
<path d="M41.8349 41.0081C41.8349 41.2167 41.7613 41.3945 41.6142 41.5416C41.4671 41.6887 41.2893 41.7623 41.0807 41.7623H40.395C40.1865 41.7623 40.0086 41.6887 39.8615 41.5416C39.7143 41.3945 39.6407 41.2167 39.6407 41.0081V40.3224C39.6407 40.1138 39.7143 39.936 39.8615 39.7889C40.0086 39.6417 40.1865 39.5681 40.395 39.5681H41.0807C41.2893 39.5681 41.4671 39.6417 41.6142 39.7888C41.7613 39.936 41.8349 40.1138 41.8349 40.3224V41.0081Z" fill="#FCC70A"/>
<path d="M46.2231 39.5681H44.0289V41.7623H46.2231V39.5681Z" fill="#FCC70A"/>
<path d="M48.4173 39.5681H46.2231V41.7623H48.4173V39.5681Z" fill="#FCC70A"/>
<path d="M50.6116 39.5681H48.4174V41.7623H50.6116V39.5681Z" fill="#FCC70A"/>
<path d="M52.8055 39.5681H50.6113V41.7623H52.8055V39.5681Z" fill="#FCC70A"/>
<path d="M54.9997 39.5681H52.8055V41.7623H54.2455C54.454 41.7623 54.6319 41.6887 54.779 41.5416C54.9261 41.3945 54.9997 41.2166 54.9997 41.0081V39.5681Z" fill="#FCC70A"/>
<path d="M19.8926 41.7622H17.6984V43.2021C17.6984 43.4107 17.7719 43.5886 17.9191 43.7357C18.0662 43.8828 18.2441 43.9564 18.4526 43.9564H19.8926V41.7622Z" fill="#FCC70A"/>
<path d="M22.0868 41.7622H19.8926V43.9564H21.3326C21.5411 43.9564 21.719 43.8828 21.8661 43.7357C22.0132 43.5886 22.0868 43.4107 22.0868 43.2021V41.7622Z" fill="#FCC70A"/>
<path d="M28.6697 41.7622H26.4755V43.9564H28.6697V41.7622Z" fill="#FCC70A"/>
<path d="M35.2521 42.5165V41.7622H33.8122C33.6036 41.7622 33.4258 41.8358 33.2786 41.9829C33.1315 42.1301 33.0579 42.3079 33.0579 42.5165V43.2021C33.0579 43.4107 33.1315 43.5886 33.2786 43.7357C33.4258 43.8828 33.6036 43.9564 33.8122 43.9564H35.2521V42.5165Z" fill="#FCC70A"/>
<path d="M37.4464 41.7622H35.2522V43.9564H37.4464V41.7622Z" fill="#FCC70A"/>
<path d="M46.2231 41.7622H44.0289V43.9564H46.2231V41.7622Z" fill="#FCC70A"/>
<path d="M52.8055 41.7622H50.6113V43.9564H52.8055V41.7622Z" fill="#FCC70A"/>
<path d="M26.4754 44.7108V43.9565H25.0354C24.8269 43.9565 24.649 44.0301 24.5019 44.1773C24.3548 44.3244 24.2812 44.5022 24.2812 44.7108V45.3965C24.2812 45.605 24.3548 45.7829 24.5019 45.93C24.649 46.0771 24.8269 46.1507 25.0354 46.1507H26.4754V44.7108Z" fill="#FCC70A"/>
<path d="M28.6697 43.9565H26.4755V46.1507H28.6697V43.9565Z" fill="#FCC70A"/>
<path d="M30.8636 44.7108C30.8636 44.5022 30.79 44.3244 30.6429 44.1773C30.4957 44.0301 30.3179 43.9565 30.1093 43.9565H28.6694V46.1507H30.8636V44.7108Z" fill="#FCC70A"/>
<path d="M37.4464 43.9565H35.2522V45.3965C35.2522 45.605 35.3258 45.7829 35.4729 45.93C35.6201 46.0771 35.7979 46.1507 36.0065 46.1507H37.4464V43.9565Z" fill="#FCC70A"/>
<path d="M39.6407 43.9565H37.4465V46.1507H39.6407V43.9565Z" fill="#FCC70A"/>
<path d="M41.8349 43.9565H39.6407V46.1507H41.8349V43.9565Z" fill="#FCC70A"/>
<path d="M44.0288 43.9565H41.8346V46.1507H44.0288V43.9565Z" fill="#FCC70A"/>
<path d="M46.2231 43.9565H44.0289V46.1507H45.4688C45.6774 46.1507 45.8552 46.0771 46.0023 45.93C46.1495 45.7829 46.2231 45.605 46.2231 45.3965V43.9565Z" fill="#FCC70A"/>
<path d="M52.8055 43.9565H50.6113V46.1507H52.8055V43.9565Z" fill="#FCC70A"/>
<path d="M19.8926 46.9051C19.8926 46.6966 19.819 46.5187 19.6718 46.3716C19.5247 46.2245 19.3469 46.1509 19.1383 46.1509H18.4526C18.2441 46.1509 18.0662 46.2245 17.9191 46.3716C17.772 46.5187 17.6984 46.6966 17.6984 46.9051V47.5908C17.6984 47.6022 17.6998 47.6194 17.7026 47.6422H17.6984V48.3451H19.8926V47.6422H19.8883C19.8912 47.6194 19.8926 47.6023 19.8926 47.5908V46.9051Z" fill="#FCC70A"/>
<path d="M24.2811 46.9051C24.2811 46.6966 24.2075 46.5187 24.0604 46.3716C23.9133 46.2245 23.7354 46.1509 23.5269 46.1509H22.8412C22.6326 46.1509 22.4547 46.2245 22.3076 46.3716C22.1605 46.5187 22.0869 46.6966 22.0869 46.9051V47.5908C22.0869 47.6022 22.0883 47.6194 22.0912 47.6422H22.0869V48.3451H24.2811V47.6422H24.2768C24.2797 47.6194 24.2811 47.6023 24.2811 47.5908V46.9051Z" fill="#FCC70A"/>
<path d="M28.6697 46.1509H26.4755V48.3451H28.6697V46.1509Z" fill="#FCC70A"/>
<path d="M30.8636 46.1509H28.6694V48.3451H30.8636V46.1509Z" fill="#FCC70A"/>
<path d="M32.3036 46.1509H30.8636V48.3451H32.3036C32.5121 48.3451 32.69 48.2715 32.8371 48.1244C32.9842 47.9772 33.0578 47.7994 33.0578 47.5908V46.9051C33.0578 46.6966 32.9842 46.5187 32.8371 46.3716C32.69 46.2245 32.5121 46.1509 32.3036 46.1509Z" fill="#FCC70A"/>
<path d="M39.6407 46.1509H37.4465V48.3451H39.6407V46.1509Z" fill="#FCC70A"/>
<path d="M41.8349 46.1509H39.6407V48.3451H41.8349V46.1509Z" fill="#FCC70A"/>
<path d="M50.6116 46.9051V46.1509H49.1717C48.9631 46.1509 48.7853 46.2245 48.6381 46.3716C48.491 46.5187 48.4174 46.6966 48.4174 46.9051V48.3451H50.6116V46.9051Z" fill="#FCC70A"/>
<path d="M52.8055 46.1509H50.6113V48.3451H52.8055V46.1509Z" fill="#FCC70A"/>
<path d="M54.2455 46.1509H52.8055V48.3451H54.2455C54.454 48.3451 54.6319 48.2715 54.779 48.1244C54.9261 47.9772 54.9997 47.7994 54.9997 47.5908V46.9051C54.9997 46.6966 54.9261 46.5187 54.779 46.3716C54.6319 46.2245 54.454 46.1509 54.2455 46.1509Z" fill="#FCC70A"/>
<path d="M19.8883 49.048H19.8926V48.3452H17.6984V49.048H17.7026C17.6998 49.0709 17.6984 49.088 17.6984 49.0995V49.7852C17.6984 49.9937 17.7719 50.1716 17.9191 50.3187C18.0662 50.4658 18.2441 50.5394 18.4526 50.5394H19.1383C19.3469 50.5394 19.5247 50.4658 19.6718 50.3187C19.819 50.1716 19.8926 49.9937 19.8926 49.7852V49.0995C19.8926 49.088 19.8912 49.0709 19.8883 49.048Z" fill="#FCC70A"/>
<path d="M24.2811 48.3452H22.0869V49.7852C22.0869 49.9937 22.1605 50.1716 22.3076 50.3187C22.4548 50.4658 22.6326 50.5394 22.8412 50.5394H24.2811V48.3452Z" fill="#FCC70A"/>
<path d="M26.4754 48.3452H24.2812V50.5394H26.4754V48.3452Z" fill="#FCC70A"/>
<path d="M28.6697 48.3452H26.4755V50.5394H28.6697V48.3452Z" fill="#FCC70A"/>
<path d="M30.8636 48.3452H28.6694V50.5394H30.1093C30.3179 50.5394 30.4957 50.4658 30.6429 50.3187C30.79 50.1716 30.8636 49.9937 30.8636 49.7852V48.3452Z" fill="#FCC70A"/>
<path d="M39.6407 48.3452H37.4465V50.5394H39.6407V48.3452Z" fill="#FCC70A"/>
<path d="M41.8349 48.3452H39.6407V50.5394H41.8349V48.3452Z" fill="#FCC70A"/>
<path d="M44.0288 48.3452H41.8346V50.5394H44.0288V48.3452Z" fill="#FCC70A"/>
<path d="M46.2231 48.3452H44.0289V50.5394H46.2231V48.3452Z" fill="#FCC70A"/>
<path d="M48.4173 48.3452H46.2231V50.5394H48.4173V48.3452Z" fill="#FCC70A"/>
<path d="M50.6116 48.3452H48.4174V50.5394H50.6116V48.3452Z" fill="#FCC70A"/>
<path d="M52.8055 48.3452H50.6113V50.5394H52.0512C52.2598 50.5394 52.4376 50.4658 52.5847 50.3187C52.7319 50.1716 52.8055 49.9937 52.8055 49.7852V48.3452Z" fill="#FCC70A"/>
<path d="M39.6407 50.5391H37.4465V51.979C37.4465 52.1876 37.52 52.3654 37.6672 52.5125C37.8143 52.6597 37.9922 52.7333 38.2007 52.7333H39.6407V50.5391Z" fill="#FCC70A"/>
<path d="M41.8349 50.5391H39.6407V52.7333H41.8349V50.5391Z" fill="#FCC70A"/>
<path d="M46.2231 50.5391H44.0289V52.7333H46.2231V50.5391Z" fill="#FCC70A"/>
<path d="M50.6116 50.5391H48.4174V52.7333H50.6116V50.5391Z" fill="#FCC70A"/>
<path d="M19.8926 54.1733C19.8926 54.3819 19.8189 54.5598 19.6718 54.7069C19.5247 54.854 19.3469 54.9276 19.1383 54.9276H18.4526C18.2441 54.9276 18.0662 54.854 17.9191 54.7069C17.772 54.5598 17.6984 54.3819 17.6984 54.1733V53.4877C17.6984 53.2791 17.7719 53.1013 17.9191 52.9541C18.0662 52.807 18.2441 52.7334 18.4526 52.7334H19.1383C19.3469 52.7334 19.5248 52.807 19.6718 52.9541C19.819 53.1013 19.8926 53.2791 19.8926 53.4877V54.1733Z" fill="#FCC70A"/>
<path d="M28.6697 54.1733C28.6697 54.3819 28.596 54.5598 28.4489 54.7069C28.3018 54.854 28.124 54.9276 27.9154 54.9276H27.2297C27.0212 54.9276 26.8433 54.854 26.6962 54.7069C26.5491 54.5598 26.4755 54.3819 26.4755 54.1733V53.4877C26.4755 53.2791 26.549 53.1013 26.6962 52.9541C26.8433 52.807 27.0212 52.7334 27.2297 52.7334H27.9154C28.124 52.7334 28.3019 52.807 28.4489 52.9541C28.5961 53.1013 28.6697 53.2791 28.6697 53.4877V54.1733Z" fill="#FCC70A"/>
<path d="M33.0578 54.1733C33.0578 54.3819 32.9842 54.5598 32.8371 54.7069C32.69 54.854 32.5122 54.9276 32.3036 54.9276H31.6179C31.4094 54.9276 31.2315 54.854 31.0844 54.7069C30.9372 54.5598 30.8636 54.3819 30.8636 54.1733V53.4877C30.8636 53.2791 30.9372 53.1013 31.0844 52.9541C31.2315 52.807 31.4094 52.7334 31.6179 52.7334H32.3036C32.5122 52.7334 32.69 52.807 32.8371 52.9541C32.9842 53.1013 33.0578 53.2791 33.0578 53.4877V54.1733Z" fill="#FCC70A"/>
<path d="M41.8349 52.7334H39.6407V54.1733C39.6407 54.3819 39.7143 54.5598 39.8615 54.7069C40.0086 54.854 40.1864 54.9276 40.395 54.9276H41.8349V52.7334Z" fill="#FCC70A"/>
<path d="M44.0288 52.7334H41.8346V54.9276H44.0288V52.7334Z" fill="#FCC70A"/>
<path d="M46.2231 52.7334H44.0289V54.9276H46.2231V52.7334Z" fill="#FCC70A"/>
<path d="M48.4173 52.7334H46.2231V54.9276H48.4173V52.7334Z" fill="#FCC70A"/>
<path d="M50.6116 52.7334H48.4174V54.9276H50.6116V52.7334Z" fill="#FCC70A"/>
<path d="M52.8055 52.7334H50.6113V54.9276H52.8055V52.7334Z" fill="#FCC70A"/>
<path d="M54.2455 52.7334H52.8055V54.9276H54.2455C54.454 54.9276 54.6319 54.854 54.779 54.7069C54.9261 54.5598 54.9997 54.3819 54.9997 54.1733V53.4877C54.9997 53.2791 54.9261 53.1012 54.779 52.9541C54.6319 52.807 54.454 52.7334 54.2455 52.7334Z" fill="#FCC70A"/>
<path d="M10.2605 0.0739746H5.38885C3.01461 0.0739746 1.00315 1.64262 0.36005 3.78664C0.293544 4.00842 0.24163 4.23636 0.205535 4.46936C0.165755 4.72647 0.14502 4.98973 0.14502 5.25775V10.2451C0.14502 13.1048 2.49807 15.4304 5.38885 15.4304L7.82469 15.4309L10.2605 15.4302C13.1512 15.4302 15.5044 13.1047 15.5044 10.2449V5.25775C15.5044 2.39938 13.1513 0.0739746 10.2605 0.0739746ZM13.2005 10.2451C13.2005 11.8339 11.8817 13.1265 10.2599 13.1265L7.82469 13.127L5.38947 13.1263C3.76768 13.1263 2.44892 11.8337 2.44892 10.2451V5.25775C2.44892 4.76149 2.57763 4.29426 2.80418 3.88601C3.02229 3.49327 3.33086 3.15552 3.7024 2.89979C4.18007 2.57094 4.76173 2.37788 5.3887 2.37788H10.2605C11.8817 2.37788 13.2005 3.66975 13.2005 5.25775V10.2451Z" fill="#FCC70A"/>
<path d="M49.7563 0.0739746H44.8846C42.5103 0.0739746 40.4989 1.64262 39.8558 3.78664C39.7893 4.00842 39.7374 4.23636 39.7013 4.46936C39.6615 4.72647 39.6407 4.98973 39.6407 5.25775V10.2451C39.6407 13.1048 41.9938 15.4304 44.8846 15.4304L47.3204 15.4309L49.7563 15.4302C52.6469 15.4302 55.0001 13.1047 55.0001 10.2449V5.25775C55.0001 2.39938 52.647 0.0739746 49.7563 0.0739746ZM52.6962 10.2451C52.6962 11.8339 51.3774 13.1265 49.7556 13.1265L47.3204 13.127L44.8852 13.1263C43.2634 13.1263 41.9446 11.8337 41.9446 10.2451V5.25775C41.9446 4.76149 42.0734 4.29426 42.2999 3.88601C42.518 3.49327 42.8266 3.15552 43.1981 2.89979C43.6758 2.57094 44.2575 2.37788 44.8844 2.37788H49.7563C51.3774 2.37788 52.6962 3.66975 52.6962 5.25775V10.2451Z" fill="#FCC70A"/>
<path d="M10.2605 39.5693H5.38885C3.01461 39.5693 1.00315 41.138 0.36005 43.282C0.293544 43.5038 0.24163 43.7317 0.205535 43.9647C0.165755 44.2218 0.14502 44.4851 0.14502 44.7531V49.7404C0.14502 52.6002 2.49807 54.9258 5.38885 54.9258L7.82469 54.9262L10.2605 54.9256C13.1512 54.9256 15.5044 52.6001 15.5044 49.7403V44.7531C15.5044 41.8947 13.1513 39.5693 10.2605 39.5693ZM13.2005 49.7404C13.2005 51.3292 11.8817 52.6219 10.2599 52.6219L7.82469 52.6223L5.38947 52.6217C3.76768 52.6217 2.44892 51.3291 2.44892 49.7404V44.7531C2.44892 44.2569 2.57763 43.7896 2.80418 43.3814C3.02229 42.9886 3.33086 42.6509 3.7024 42.3951C4.18007 42.0663 4.76173 41.8732 5.3887 41.8732H10.2605C11.8817 41.8732 13.2005 43.1651 13.2005 44.7531V49.7404Z" fill="#FCC70A"/>
<path d="M11.1161 4.46143H4.53357V11.044H11.1161V4.46143Z" fill="#FCC70A"/>
<path d="M50.6114 4.46143H44.0289V11.044H50.6114V4.46143Z" fill="#FCC70A"/>
<path d="M11.1161 43.9565H4.53357V50.5391H11.1161V43.9565Z" fill="#FCC70A"/>
</svg>
