<svg width="148" height="124" viewBox="0 0 148 124" fill="none" xmlns="http://www.w3.org/2000/svg">
<path d="M88.2676 3H59.7324C39.756 3 29.7677 3 22.1377 6.85837C15.4262 10.2523 9.96955 15.6678 6.54985 22.3287C4.40233 26.5117 3.44108 31.4089 3.01082 38.2966C2.80506 41.5903 5.56611 44.223 8.69152 45.3371C15.5742 47.7904 20.4966 54.3247 20.4966 62C20.4966 69.6753 15.5742 76.2096 8.69151 78.6629C5.56611 79.777 2.80506 82.4097 3.01081 85.7034C3.44108 92.5911 4.40233 97.4883 6.54985 101.671C9.96955 108.332 15.4262 113.748 22.1377 117.142C29.7677 121 39.756 121 59.7324 121H88.2676M88.2676 3C108.244 3 118.232 3 125.862 6.85837C132.574 10.2523 138.03 15.6678 141.45 22.3287C143.598 26.5117 144.559 31.4089 144.989 38.2966C145.195 41.5903 142.434 44.223 139.308 45.3371C132.426 47.7904 127.503 54.3247 127.503 62C127.503 69.6753 132.426 76.2096 139.308 78.6629C142.434 79.777 145.195 82.4097 144.989 85.7034C144.559 92.5911 143.598 97.4883 141.45 101.671C138.03 108.332 132.574 113.748 125.862 117.142C118.232 121 108.244 121 88.2676 121M88.2676 3V26.6M88.2676 121V97.4M88.2676 50.2V73.8" stroke="#FCC70A" stroke-width="4.85" stroke-linecap="round"/>
</svg>
