<svg width="30" height="39" viewBox="0 0 30 39" fill="none" xmlns="http://www.w3.org/2000/svg">
<path d="M28.5928 19.5C28.5928 23.2643 22.5486 26.3158 15.0928 26.3158C7.63693 26.3158 1.59277 23.2643 1.59277 19.5M28.5928 19.5V31.1842C28.5928 34.9485 22.5486 38 15.0928 38C7.63693 38 1.59277 34.9485 1.59277 31.1842V19.5M28.5928 19.5V7.81579M1.59277 19.5V7.81579M28.5928 7.81579C28.5928 11.58 22.5486 14.6316 15.0928 14.6316C7.63693 14.6316 1.59277 11.58 1.59277 7.81579M28.5928 7.81579C28.5928 4.05153 22.5486 1 15.0928 1C7.63693 1 1.59277 4.05153 1.59277 7.81579" stroke="black" stroke-width="2"/>
</svg>
