<svg width="35" height="44" viewBox="0 0 35 44" fill="none" xmlns="http://www.w3.org/2000/svg">
<path d="M6.40549 41.4343L5.95369 42.3265L6.40549 41.4343ZM2.07904 37.1341L1.18915 37.5903L2.07904 37.1341ZM32.921 37.1341L33.8108 37.5903L32.921 37.1341ZM28.5945 41.4343L29.0463 42.3265L28.5945 41.4343ZM28.5945 10.7793L29.0463 9.88721L28.5945 10.7793ZM32.921 15.0796L33.8108 14.6234L32.921 15.0796ZM6.40549 10.7793L5.95369 9.88721L6.40549 10.7793ZM2.07904 15.0796L1.18915 14.6234L2.07904 15.0796ZM20.4312 1.67448L20.6885 0.708164L20.6885 0.708164L20.4312 1.67448ZM23.9313 5.15345L24.8969 4.89316L24.8969 4.89316L23.9313 5.15345ZM14.5688 1.67448L14.8262 2.6408L14.5688 1.67448ZM11.0687 5.15345L12.0342 5.41374V5.41374L11.0687 5.15345ZM13.4884 26.8296L14.2766 26.2142L13.4884 26.8296ZM21.5116 26.8296L20.7234 26.2142L21.5116 26.8296ZM16.84 10.7068H18.16V8.70684H16.84V10.7068ZM33 25.4508V26.7628H35V25.4508H33ZM18.16 41.5068H16.84V43.5068H18.16V41.5068ZM2 26.7628V25.4508H0V26.7628H2ZM16.84 41.5068C14.0513 41.5068 12.0196 41.5061 10.4186 41.3761C8.82916 41.247 7.75223 40.9954 6.8573 40.5422L5.95369 42.3265C7.17648 42.9457 8.54455 43.2304 10.2568 43.3695C11.9575 43.5076 14.0841 43.5068 16.84 43.5068V41.5068ZM0 26.7628C0 29.5017 -0.000787139 31.6163 0.138241 33.3077C0.278243 35.0108 0.565046 36.3728 1.18915 37.5903L2.96892 36.6779C2.51399 35.7905 2.26127 34.7223 2.13152 33.1438C2.00079 31.5534 2 29.5349 2 26.7628H0ZM6.8573 40.5422C5.18216 39.6939 3.82136 38.3408 2.96892 36.6779L1.18915 37.5903C2.235 39.6304 3.90322 41.288 5.95369 42.3265L6.8573 40.5422ZM33 26.7628C33 29.5349 32.9992 31.5534 32.8685 33.1438C32.7387 34.7223 32.486 35.7905 32.0311 36.6779L33.8108 37.5903C34.435 36.3728 34.7218 35.0108 34.8618 33.3077C35.0008 31.6163 35 29.5017 35 26.7628H33ZM18.16 43.5068C20.9159 43.5068 23.0425 43.5076 24.7432 43.3695C26.4555 43.2304 27.8235 42.9457 29.0463 42.3265L28.1427 40.5422C27.2478 40.9954 26.1708 41.247 24.5814 41.3761C22.9804 41.5061 20.9487 41.5068 18.16 41.5068V43.5068ZM32.0311 36.6779C31.1786 38.3408 29.8178 39.6939 28.1427 40.5422L29.0463 42.3265C31.0968 41.288 32.765 39.6304 33.8108 37.5903L32.0311 36.6779ZM18.16 10.7068C20.9487 10.7068 22.9804 10.7076 24.5814 10.8376C26.1708 10.9667 27.2478 11.2182 28.1427 11.6714L29.0463 9.88721C27.8235 9.26795 26.4555 8.98322 24.7432 8.84418C23.0425 8.70607 20.9159 8.70684 18.16 8.70684V10.7068ZM35 25.4508C35 22.712 35.0008 20.5973 34.8618 18.906C34.7218 17.2029 34.435 15.8408 33.8108 14.6234L32.0311 15.5358C32.486 16.4232 32.7387 17.4914 32.8685 19.0699C32.9992 20.6602 33 22.6788 33 25.4508H35ZM28.1427 11.6714C29.8178 12.5198 31.1786 13.8729 32.0311 15.5358L33.8108 14.6234C32.765 12.5832 31.0968 10.9256 29.0463 9.88721L28.1427 11.6714ZM16.84 8.70684C14.0841 8.70684 11.9575 8.70607 10.2568 8.84418C8.54455 8.98322 7.17648 9.26795 5.95369 9.88721L6.8573 11.6714C7.75223 11.2182 8.82916 10.9667 10.4186 10.8376C12.0196 10.7076 14.0513 10.7068 16.84 10.7068V8.70684ZM2 25.4508C2 22.6788 2.00079 20.6602 2.13152 19.0699C2.26127 17.4914 2.51399 16.4232 2.96892 15.5358L1.18915 14.6234C0.565046 15.8408 0.278243 17.2029 0.138241 18.906C-0.000787139 20.5973 0 22.712 0 25.4508H2ZM5.95369 9.88721C3.90322 10.9256 2.235 12.5832 1.18915 14.6234L2.96892 15.5358C3.82136 13.8729 5.18216 12.5198 6.8573 11.6714L5.95369 9.88721ZM23.1 8.06684V9.70684H25.1V8.06684H23.1ZM11.9 9.70684V8.06684H9.9V9.70684H11.9ZM17.5 2.50684C19.0985 2.50684 19.7027 2.51533 20.1738 2.6408L20.6885 0.708164C19.9007 0.498344 18.9704 0.506836 17.5 0.506836V2.50684ZM25.1 8.06684C25.1 6.60642 25.1087 5.6789 24.8969 4.89316L22.9658 5.41374C23.0913 5.87931 23.1 6.47694 23.1 8.06684H25.1ZM20.1738 2.6408C21.539 3.0044 22.6017 4.06309 22.9658 5.41374L24.8969 4.89316C24.3456 2.8481 22.7397 1.25444 20.6885 0.708164L20.1738 2.6408ZM17.5 0.506836C16.0296 0.506836 15.0993 0.498344 14.3115 0.708164L14.8262 2.6408C15.2973 2.51533 15.9015 2.50684 17.5 2.50684V0.506836ZM11.9 8.06684C11.9 6.47694 11.9087 5.87931 12.0342 5.41374L10.1031 4.89316C9.89131 5.6789 9.9 6.60642 9.9 8.06684H11.9ZM14.3115 0.708164C12.2603 1.25444 10.6544 2.8481 10.1031 4.89316L12.0342 5.41374C12.3983 4.06309 13.461 3.0044 14.8262 2.6408L14.3115 0.708164ZM13.55 24.1388C13.55 22.2244 15.2465 20.5468 17.5 20.5468V18.5468C14.2859 18.5468 11.55 20.9811 11.55 24.1388H13.55ZM17.5 20.5468C19.7535 20.5468 21.45 22.2244 21.45 24.1388H23.45C23.45 20.9811 20.7141 18.5468 17.5 18.5468V20.5468ZM14.2766 26.2142C13.8147 25.6226 13.55 24.907 13.55 24.1388H11.55C11.55 25.3807 11.9814 26.5243 12.7002 27.445L14.2766 26.2142ZM13.2 27.6331V29.8788H15.2V27.6331H13.2ZM15.355 32.0268H19.645V30.0268H15.355V32.0268ZM21.45 24.1388C21.45 24.907 21.1853 25.6226 20.7234 26.2142L22.2998 27.445C23.0186 26.5243 23.45 25.3807 23.45 24.1388H21.45ZM21.8 29.8788V27.6331H19.8V29.8788H21.8ZM20.7234 26.2142C20.7485 26.182 20.7537 26.1847 20.6802 26.2465C20.647 26.2744 20.5088 26.3866 20.4312 26.4541C20.3377 26.5356 20.2002 26.6618 20.0822 26.8211C19.9681 26.9751 19.8 27.2561 19.8 27.6331H21.8C21.8 27.8634 21.6982 27.9995 21.6893 28.0116C21.6764 28.029 21.683 28.0161 21.7447 27.9623C21.772 27.9386 21.8028 27.9129 21.8415 27.8812C21.8766 27.8524 21.9242 27.8136 21.9679 27.7768C22.0127 27.7391 22.0661 27.693 22.1194 27.6422C22.1715 27.5924 22.2368 27.5258 22.2998 27.445L20.7234 26.2142ZM19.645 32.0268C20.8294 32.0268 21.8 31.0709 21.8 29.8788H19.8C19.8 29.9549 19.7363 30.0268 19.645 30.0268V32.0268ZM13.2 29.8788C13.2 31.0709 14.1706 32.0268 15.355 32.0268V30.0268C15.2637 30.0268 15.2 29.9549 15.2 29.8788H13.2ZM12.7002 27.445C12.7632 27.5258 12.8285 27.5924 12.8806 27.6422C12.9339 27.693 12.9873 27.7391 13.0321 27.7768C13.0758 27.8136 13.1234 27.8524 13.1585 27.8812C13.1972 27.9129 13.228 27.9386 13.2553 27.9623C13.317 28.0161 13.3236 28.029 13.3107 28.0116C13.3018 27.9995 13.2 27.8634 13.2 27.6331H15.2C15.2 27.2561 15.0319 26.9751 14.9178 26.8211C14.7998 26.6618 14.6623 26.5356 14.5688 26.4541C14.4912 26.3866 14.353 26.2744 14.3198 26.2465C14.2463 26.1847 14.2515 26.182 14.2766 26.2142L12.7002 27.445Z" fill="black"/>
</svg>
