<svg width="113" height="119" viewBox="0 0 113 119" fill="none" xmlns="http://www.w3.org/2000/svg">
<path d="M73.5 116V7.70834C73.5 6.40817 74.554 5.35417 75.8542 5.35417V5.35417C81.4734 5.35417 86.8626 7.58642 90.836 11.5598C94.8094 15.5333 97.0417 20.9224 97.0417 26.5417V68.9167C97.0417 70.2168 95.9877 71.2708 94.6875 71.2708V71.2708C91.5657 71.2708 88.5717 72.511 86.3643 74.7184C84.1568 76.9259 82.9167 79.9199 82.9167 83.0417M33.4792 116V47.7292M33.4792 47.7292C37.8497 47.7292 42.0413 45.993 45.1317 42.9025C48.2221 39.8121 49.9583 35.6205 49.9583 31.25V3M33.4792 47.7292C29.1086 47.7292 24.9171 45.993 21.8266 42.9025C18.7362 39.8121 17 35.6205 17 31.25V3M33.4792 3V38.3125" stroke="#00D4A7" stroke-width="4.85" stroke-linecap="round"/>
</svg>
