<svg width="38" height="27" viewBox="0 0 38 27" fill="none" xmlns="http://www.w3.org/2000/svg">
<path d="M11.8947 7.39364V10.2172M11.8947 10.2172V13.0407M11.8947 10.2172H9.05263M11.8947 10.2172H14.7368M23.3733 18.6878H14.6267C12.8999 18.6878 11.2668 19.4676 10.1881 20.8071L7.43327 24.2281C6.66042 25.1879 5.49034 25.7466 4.25317 25.7466C2.82266 25.7466 1.52306 24.966 1.26364 23.5684C0.899574 21.6071 0.743085 18.2252 1.94738 13.0407C2.53193 10.5243 3.11647 8.53865 3.65705 6.98197C4.88621 3.44244 8.3279 1.74658 12.0968 1.74658H25.9032C29.6721 1.74658 33.1138 3.44248 34.343 6.98208C34.8836 8.53875 35.4681 10.5243 36.0526 13.0407C37.2569 18.2252 37.1004 21.6071 36.7364 23.5684C36.4769 24.966 35.1773 25.7466 33.7468 25.7466C32.5096 25.7466 31.3395 25.1879 30.5667 24.2281L27.8119 20.8071C26.7332 19.4676 25.1001 18.6878 23.3733 18.6878Z" stroke="black" stroke-width="2" stroke-linecap="round"/>
<path d="M24.6843 12.6172C24.6843 12.0714 25.1297 11.6289 25.679 11.6289H26.5317C27.081 11.6289 27.5264 12.0714 27.5264 12.6172V13.4642C27.5264 14.01 27.081 14.4525 26.5317 14.4525H25.679C25.1297 14.4525 24.6843 14.01 24.6843 13.4642V12.6172Z" fill="black"/>
<path d="M24.6843 6.97011C24.6843 6.42432 25.1297 5.98187 25.679 5.98187H26.5317C27.081 5.98187 27.5264 6.42432 27.5264 6.97011V7.81717C27.5264 8.36295 27.081 8.8054 26.5317 8.8054H25.679C25.1297 8.8054 24.6843 8.36295 24.6843 7.81717V6.97011Z" fill="black"/>
<path d="M27.5264 9.79364C27.5264 9.24785 27.9718 8.8054 28.5211 8.8054H29.3738C29.9232 8.8054 30.3685 9.24785 30.3685 9.79364V10.6407C30.3685 11.1865 29.9232 11.6289 29.3738 11.6289H28.5211C27.9718 11.6289 27.5264 11.1865 27.5264 10.6407V9.79364Z" fill="black"/>
<path d="M21.8422 9.79364C21.8422 9.24785 22.2876 8.8054 22.8369 8.8054H23.6896C24.2389 8.8054 24.6843 9.24785 24.6843 9.79364V10.6407C24.6843 11.1865 24.2389 11.6289 23.6896 11.6289H22.8369C22.2876 11.6289 21.8422 11.1865 21.8422 10.6407V9.79364Z" fill="black"/>
</svg>
