<svg width="119" height="136" viewBox="0 0 119 136" fill="none" xmlns="http://www.w3.org/2000/svg">
<path d="M110.893 19.1778V19V12.3624H117.333V19.1778L117.333 27.118V32.717C117.333 45.4237 106.994 55.7625 94.2876 55.7625H76.795H76.045V56.5125V60.6068C76.045 67.6483 78.4794 74.5426 82.9015 80.0229L90.6287 89.5988C94.7967 94.7639 97.1011 101.265 97.1173 107.901C97.1333 114.538 94.8602 121.05 90.7177 126.235L83.7096 135.007H43.9148L36.907 126.235L36.321 126.703L36.907 126.235C33.4682 121.931 31.3223 116.71 30.7005 111.262L30.628 110.627L29.9895 110.598C13.7418 109.856 0.75 96.4052 0.75 79.9775C0.75 63.0751 14.5026 49.3226 31.4049 49.3226H50.8302H51.5802V48.5726V38.0805C51.5802 38.0804 51.5802 38.0804 51.5802 38.0804C51.5813 31.8842 50.6332 25.7244 48.7688 19.8154C48.7688 19.8154 48.7688 19.8153 48.7687 19.8153L45.03 7.95798L44.8646 7.43352H44.3147H38.2523V0.993286H89.3727V7.43352H83.3105H82.7606L82.5952 7.95796L78.8562 19.815C76.9919 25.7241 76.0438 31.8839 76.045 38.0801C76.045 38.0801 76.045 38.0802 76.045 38.0802V48.5723V49.3223H76.795H94.2876C103.445 49.3223 110.893 41.8739 110.893 32.717V27.1192V27.1181L110.893 26.9414V26.9402V19.1778ZM74.1155 80.6693H75.4251L74.7623 79.5397C71.4109 73.8279 69.6048 67.2704 69.6051 60.6068V38.0805C69.6051 38.0804 69.6051 38.0804 69.6051 38.0804C69.6054 35.8861 69.7132 33.6931 69.9278 31.5093L70.0087 30.686H69.9084L69.914 30.6607C70.0255 30.1525 70.2272 29.1771 70.4748 27.9801C70.7079 26.8528 70.9817 25.5291 71.259 24.2139C71.8379 21.469 72.4254 18.7964 72.7144 17.8786C72.7144 17.8785 72.7145 17.8784 72.7145 17.8783L75.7002 8.40905L76.0078 7.43352H74.9849H52.64H51.6171L51.9248 8.40907L54.9107 17.8783C55.1997 18.7959 55.7872 21.4687 56.3661 24.214C56.6425 25.5249 56.9154 26.8443 57.1481 27.9692C57.3967 29.1711 57.5993 30.1509 57.7113 30.6608L57.7168 30.686H57.6166L57.6974 31.5092C57.9113 33.6891 58.0202 35.8813 58.0202 38.0804V60.6068C58.0202 67.2706 56.2141 73.8279 52.8629 79.5398L52.2002 80.6693H53.5098H74.1155ZM30.0758 104.155L30.7537 104.192L30.8577 103.521C31.644 98.4474 33.7533 93.6176 36.996 89.5991L44.7234 80.0229L44.1398 79.5519L44.7234 80.0229C49.1453 74.5428 51.5799 67.6486 51.5799 60.6071V56.5128V55.7628H50.8299H31.4047C18.0521 55.7628 7.18997 66.6247 7.18997 79.9773C7.18997 92.8845 17.3389 103.462 30.0758 104.155ZM80.2512 128.566H80.6119L80.8371 128.285L85.6865 122.215C88.9175 118.17 90.6897 113.094 90.6771 107.917C90.6645 102.74 88.868 97.6722 85.617 93.6433L80.5699 87.3885L80.3447 87.1095H79.9862H47.6388H47.2802L47.0551 87.3885L42.0078 93.6433C38.7567 97.672 36.9602 102.74 36.9476 107.917C36.935 113.094 38.7072 118.171 41.9385 122.215L46.7876 128.285L47.0128 128.566H47.3736H80.2512Z" fill="#FCC70A" stroke="white" stroke-width="1.5"/>
</svg>
