<svg width="154" height="134" viewBox="0 0 154 134" fill="none" xmlns="http://www.w3.org/2000/svg">
<path d="M77 35C82.2857 13.9467 102.249 3.1967 145.714 3.00004C146.409 2.99739 147.098 3.13354 147.74 3.40063C148.383 3.66772 148.966 4.06047 149.458 4.55624C149.949 5.05201 150.338 5.641 150.603 6.28927C150.868 6.93753 151.003 7.63225 151 8.33337V104.333C151 105.748 150.443 107.104 149.452 108.105C148.461 109.105 147.116 109.667 145.714 109.667C103.429 109.667 87.0924 118.27 77 131M77 35C71.7143 13.9467 51.7508 3.1967 8.28575 3.00004C7.59089 2.99739 6.90237 3.13354 6.2599 3.40063C5.61742 3.66772 5.03369 4.06047 4.54234 4.55624C4.051 5.05201 3.66175 5.641 3.39705 6.28927C3.13235 6.93753 2.99742 7.63225 3.00004 8.33337V103.69C3.00004 106.983 5.02182 109.667 8.28575 109.667C50.5714 109.667 66.9671 118.333 77 131M77 35V131" stroke="#00D4A7" stroke-width="4.85" stroke-linecap="round" stroke-linejoin="round"/>
</svg>
