<svg width="48" height="35" viewBox="0 0 48 35" fill="none" xmlns="http://www.w3.org/2000/svg">
<rect x="1.32666" y="29.5441" width="45.6733" height="4.41756" rx="2.20878" stroke="#1E1E1E" stroke-width="2"/>
<mask id="path-2-inside-1_129_1885" fill="white">
<path fill-rule="evenodd" clip-rule="evenodd" d="M45.2396 29.8038C45.2459 29.5605 45.2491 29.3163 45.2491 29.0712C45.2491 15.7167 35.8597 4.89075 24.2774 4.89075C12.6951 4.89075 3.30573 15.7167 3.30573 29.0712C3.30573 29.3527 3.3099 29.6332 3.31818 29.9124C3.93289 30.1823 4.61231 30.3322 5.32673 30.3322H43.0001C43.8052 30.3322 44.5659 30.1418 45.2396 29.8038Z"/>
</mask>
<path d="M45.2396 29.8038L46.1367 31.5913L47.208 31.0537L47.239 29.8554L45.2396 29.8038ZM3.31818 29.9124L1.31905 29.9716L1.35652 31.2353L2.514 31.7436L3.31818 29.9124ZM43.2491 29.0712C43.2491 29.2991 43.2461 29.5261 43.2403 29.7522L47.239 29.8554C47.2457 29.5949 47.2491 29.3335 47.2491 29.0712H43.2491ZM24.2774 6.89075C34.4973 6.89075 43.2491 16.5445 43.2491 29.0712H47.2491C47.2491 14.889 37.2222 2.89075 24.2774 2.89075V6.89075ZM5.30573 29.0712C5.30573 16.5445 14.0575 6.89075 24.2774 6.89075V2.89075C11.3327 2.89075 1.30573 14.889 1.30573 29.0712H5.30573ZM5.3173 29.8531C5.30961 29.5936 5.30573 29.333 5.30573 29.0712H1.30573C1.30573 29.3725 1.31019 29.6727 1.31905 29.9716L5.3173 29.8531ZM2.514 31.7436C3.37737 32.1227 4.33023 32.3322 5.32673 32.3322V28.3322C4.89439 28.3322 4.48841 28.2419 4.12236 28.0812L2.514 31.7436ZM5.32673 32.3322H43.0001V28.3322H5.32673V32.3322ZM43.0001 32.3322C44.1237 32.3322 45.1909 32.0659 46.1367 31.5913L44.3426 28.0162C43.941 28.2178 43.4868 28.3322 43.0001 28.3322V32.3322Z" fill="#1E1E1E" mask="url(#path-2-inside-1_129_1885)"/>
<path d="M24.2783 4.67992C24.2783 2.42563 24.2783 1.86206 24.2783 1.86206" stroke="#1E1E1E" stroke-width="2" stroke-linecap="round"/>
</svg>
