<svg width="37" height="38" viewBox="0 0 37 38" fill="none" xmlns="http://www.w3.org/2000/svg">
<path d="M32.2826 13.9692C33.725 13.7407 34.4462 13.6265 35.0501 13.1122C35.4937 12.7344 35.9241 11.9259 35.9843 11.3574C36.0662 10.5835 35.8244 10.1094 35.3409 9.16122C35.1242 8.73631 34.8859 8.32106 34.6266 7.91702C33.5775 6.28208 32.2056 4.86286 30.589 3.74039C28.9724 2.61792 27.1429 1.81418 25.205 1.37506C24.726 1.26655 24.2428 1.18082 23.757 1.11794C22.6729 0.977637 22.1309 0.907483 21.3982 1.22951C20.86 1.46605 20.2045 2.11836 19.9756 2.64524C19.6641 3.36254 19.7822 4.05955 20.0186 5.45359L21.0209 11.3655C21.2744 12.861 21.4012 13.6087 21.7992 14.1323C22.1492 14.5928 22.6411 14.9343 23.2044 15.108C23.8448 15.3054 24.6184 15.1829 26.1658 14.9379L32.2826 13.9692Z" stroke="black" stroke-width="2"/>
<path d="M33.0906 27.483C33.8433 25.8826 34.3179 24.1839 34.5052 22.4542C34.6241 21.3561 34.6835 20.807 34.3412 20.1169C34.0857 19.6016 33.4251 18.9992 32.878 18.7826C32.1453 18.4925 31.4151 18.6081 29.9547 18.8394L22.2188 20.0645C20.6714 20.3096 19.8977 20.4321 19.2574 20.2347C18.6941 20.061 18.2022 19.7194 17.8521 19.2589C17.4542 18.7354 17.3274 17.9877 17.0738 16.4921L15.8062 9.01535C15.567 7.60392 15.4473 6.89821 14.929 6.31968C14.542 5.88769 13.7405 5.47485 13.1536 5.40523C12.3677 5.31198 11.8483 5.54166 10.8095 6.00101C9.17318 6.72457 7.65893 7.70143 6.32992 8.90156C3.9023 11.0938 2.2018 13.9325 1.44345 17.0588C0.685105 20.1851 0.902979 23.4585 2.06952 26.4651C3.23606 29.4718 5.29888 32.0765 7.99711 33.95C10.6953 35.8236 13.9078 36.8817 17.2283 36.9906C20.5487 37.0996 23.828 36.2545 26.6515 34.5621C29.475 32.8697 31.7158 30.4062 33.0906 27.483Z" stroke="black" stroke-width="2"/>
</svg>
