<svg width="149" height="106" viewBox="0 0 149 106" fill="none" xmlns="http://www.w3.org/2000/svg">
<rect x="2.42728" y="88.4432" width="143.595" height="15.1294" rx="7.56469" stroke="#00D4A7" stroke-width="4.8542"/>
<mask id="path-2-inside-1_80_3930" fill="white">
<path fill-rule="evenodd" clip-rule="evenodd" d="M139.854 89.9387C139.874 89.1811 139.884 88.4207 139.884 87.6576C139.884 46.0732 110.646 12.3623 74.5801 12.3623C38.514 12.3623 9.27661 46.0732 9.27661 87.6576C9.27661 88.5343 9.28961 89.4075 9.31538 90.2769C11.2295 91.1175 13.3452 91.5841 15.5698 91.5841H132.88C135.388 91.5841 137.756 90.9915 139.854 89.9387Z"/>
</mask>
<path d="M139.854 89.9387L142.031 94.2773L144.632 92.9723L144.707 90.0639L139.854 89.9387ZM9.31538 90.2769L4.46332 90.4208L4.55425 93.4877L7.36355 94.7214L9.31538 90.2769ZM135.029 87.6576C135.029 88.3789 135.02 89.0976 135.002 89.8135L144.707 90.0639C144.727 89.2646 144.738 88.4624 144.738 87.6576H135.029ZM74.5801 17.2165C107.34 17.2165 135.029 48.0822 135.029 87.6576H144.738C144.738 44.0641 113.953 7.5081 74.5801 7.5081V17.2165ZM14.1308 87.6576C14.1308 48.0822 41.8207 17.2165 74.5801 17.2165V7.5081C35.2073 7.5081 4.42241 44.0641 4.42241 87.6576H14.1308ZM14.1675 90.133C14.1431 89.3115 14.1308 88.4863 14.1308 87.6576H4.42241C4.42241 88.5823 4.43612 89.5034 4.46332 90.4208L14.1675 90.133ZM7.36355 94.7214C9.88123 95.8271 12.6605 96.4383 15.5698 96.4383V86.7299C14.0298 86.7299 12.5778 86.408 11.2672 85.8324L7.36355 94.7214ZM15.5698 96.4383H132.88V86.7299H15.5698V96.4383ZM132.88 96.4383C136.161 96.4383 139.273 95.6614 142.031 94.2773L137.677 85.6002C136.239 86.3215 134.615 86.7299 132.88 86.7299V96.4383Z" fill="#00D4A7" mask="url(#path-2-inside-1_80_3930)"/>
<path d="M74.5831 11.7059C74.5831 4.6863 74.5831 2.9314 74.5831 2.9314" stroke="#00D4A7" stroke-width="4.8542" stroke-linecap="round"/>
</svg>
