<svg width="38" height="38" viewBox="0 0 38 38" fill="none" xmlns="http://www.w3.org/2000/svg">
<path d="M11.5642 3.57899L11.4341 4.57049L11.5642 3.57899ZM15.6124 2.31107L16.2906 3.04597L15.6124 2.31107ZM6.08297 7.41775L5.10011 7.23338V7.23338L6.08297 7.41775ZM3.58103 10.7372L4.04093 11.6252L3.58103 10.7372ZM1.48739 16.9485L2.38167 16.501H2.38167L1.48739 16.9485ZM1.48739 21.0515L2.38167 21.499H2.38167L1.48739 21.0515ZM3.58103 27.2628L4.04093 26.3748H4.04093L3.58103 27.2628ZM6.08297 30.5823L5.10011 30.7666L6.08297 30.5823ZM11.5642 34.421L11.6943 35.4125H11.6943L11.5642 34.421ZM15.6124 35.6889L16.2906 34.954V34.954L15.6124 35.6889ZM22.3876 35.6889L21.7094 34.954V34.954L22.3876 35.6889ZM26.4358 34.421L26.3057 35.4125L26.4358 34.421ZM31.917 30.5823L30.9342 30.3979L31.917 30.5823ZM34.419 27.2628L33.9591 26.3748L34.419 27.2628ZM36.5126 21.0515L35.6183 21.499L36.5126 21.0515ZM36.5126 16.9485L35.6183 16.501L36.5126 16.9485ZM34.419 10.7372L34.8789 9.84925L34.419 10.7372ZM31.917 7.41775L30.9342 7.60211V7.60211L31.917 7.41775ZM26.4358 3.57899L26.3057 2.58749L26.4358 3.57899ZM22.3876 2.31107L23.0657 1.57616V1.57616L22.3876 2.31107ZM27.1429 12.2071C27.5334 11.8166 27.5334 11.1834 27.1429 10.7929C26.7524 10.4024 26.1192 10.4024 25.7287 10.7929L27.1429 12.2071ZM10.7929 25.7287C10.4024 26.1192 10.4024 26.7524 10.7929 27.1429C11.1834 27.5334 11.8166 27.5334 12.2071 27.1429L10.7929 25.7287ZM11.4341 4.57049C13.2019 4.80243 14.9899 4.24623 16.2906 3.04597L14.9343 1.57616C14.078 2.36632 12.8852 2.74373 11.6943 2.58749L11.4341 4.57049ZM7.06583 7.60211C7.42902 5.66591 9.33175 4.29467 11.4341 4.57049L11.6943 2.58749C8.59966 2.18148 5.67015 4.19449 5.10011 7.23338L7.06583 7.60211ZM4.04093 11.6252C5.62051 10.8071 6.74161 9.33054 7.06583 7.60211L5.10011 7.23338C4.89303 8.33734 4.17188 9.30503 3.12112 9.84925L4.04093 11.6252ZM2.38167 16.501C1.49593 14.7309 2.19863 12.5794 4.04093 11.6252L3.12112 9.84925C0.343224 11.288 -0.799818 14.6123 0.593102 17.396L2.38167 16.501ZM2.38167 21.499C3.17126 19.9211 3.17126 18.0789 2.38167 16.501L0.593102 17.396C1.10079 18.4105 1.10079 19.5895 0.593102 20.604L2.38167 21.499ZM4.04093 26.3748C2.19863 25.4206 1.49593 23.2691 2.38167 21.499L0.593102 20.604C-0.799818 23.3877 0.343225 26.712 3.12112 28.1507L4.04093 26.3748ZM7.06583 30.3979C6.74161 28.6695 5.62051 27.1929 4.04093 26.3748L3.12112 28.1507C4.17188 28.695 4.89303 29.6627 5.10011 30.7666L7.06583 30.3979ZM11.4341 33.4295C9.33175 33.7053 7.42902 32.3341 7.06583 30.3979L5.10011 30.7666C5.67015 33.8055 8.59966 35.8185 11.6943 35.4125L11.4341 33.4295ZM16.2906 34.954C14.9899 33.7538 13.2019 33.1976 11.4341 33.4295L11.6943 35.4125C12.8852 35.2563 14.078 35.6337 14.9343 36.4238L16.2906 34.954ZM21.7094 34.954C20.1981 36.3487 17.8019 36.3487 16.2906 34.954L14.9343 36.4238C17.2116 38.5254 20.7884 38.5254 23.0657 36.4238L21.7094 34.954ZM26.5659 33.4295C24.7981 33.1976 23.0101 33.7538 21.7094 34.954L23.0657 36.4238C23.922 35.6337 25.1148 35.2563 26.3057 35.4125L26.5659 33.4295ZM30.9342 30.3979C30.571 32.3341 28.6682 33.7053 26.5659 33.4295L26.3057 35.4125C29.4003 35.8185 32.3298 33.8055 32.8999 30.7666L30.9342 30.3979ZM33.9591 26.3748C32.3795 27.1929 31.2584 28.6695 30.9342 30.3979L32.8999 30.7666C33.107 29.6627 33.8281 28.695 34.8789 28.1507L33.9591 26.3748ZM35.6183 21.499C36.5041 23.2691 35.8014 25.4206 33.9591 26.3748L34.8789 28.1507C37.6568 26.712 38.7998 23.3877 37.4069 20.604L35.6183 21.499ZM35.6183 16.501C34.8287 18.0789 34.8287 19.9211 35.6183 21.499L37.4069 20.604C36.8992 19.5895 36.8992 18.4105 37.4069 17.396L35.6183 16.501ZM33.9591 11.6252C35.8014 12.5794 36.5041 14.7309 35.6183 16.501L37.4069 17.396C38.7998 14.6123 37.6568 11.288 34.8789 9.84925L33.9591 11.6252ZM30.9342 7.60211C31.2584 9.33053 32.3795 10.8071 33.9591 11.6252L34.8789 9.84925C33.8281 9.30503 33.107 8.33734 32.8999 7.23338L30.9342 7.60211ZM26.5659 4.57049C28.6682 4.29467 30.571 5.66591 30.9342 7.60211L32.8999 7.23338C32.3298 4.19449 29.4003 2.18148 26.3057 2.58749L26.5659 4.57049ZM21.7094 3.04597C23.0101 4.24623 24.7981 4.80243 26.5659 4.57049L26.3057 2.58749C25.1148 2.74373 23.922 2.36632 23.0657 1.57616L21.7094 3.04597ZM23.0657 1.57616C20.7884 -0.525387 17.2116 -0.525387 14.9343 1.57616L16.2906 3.04597C17.8019 1.65134 20.1981 1.65134 21.7094 3.04597L23.0657 1.57616ZM25.7287 10.7929L10.7929 25.7287L12.2071 27.1429L27.1429 12.2071L25.7287 10.7929ZM25.5 25C25.5 25.2761 25.2761 25.5 25 25.5V27.5C26.3807 27.5 27.5 26.3807 27.5 25H25.5ZM25 25.5C24.7239 25.5 24.5 25.2761 24.5 25H22.5C22.5 26.3807 23.6193 27.5 25 27.5V25.5ZM24.5 25C24.5 24.7239 24.7239 24.5 25 24.5V22.5C23.6193 22.5 22.5 23.6193 22.5 25H24.5ZM25 24.5C25.2761 24.5 25.5 24.7239 25.5 25H27.5C27.5 23.6193 26.3807 22.5 25 22.5V24.5ZM13.5 13C13.5 13.2761 13.2761 13.5 13 13.5V15.5C14.3807 15.5 15.5 14.3807 15.5 13H13.5ZM13 13.5C12.7239 13.5 12.5 13.2761 12.5 13H10.5C10.5 14.3807 11.6193 15.5 13 15.5V13.5ZM12.5 13C12.5 12.7239 12.7239 12.5 13 12.5V10.5C11.6193 10.5 10.5 11.6193 10.5 13H12.5ZM13 12.5C13.2761 12.5 13.5 12.7239 13.5 13H15.5C15.5 11.6193 14.3807 10.5 13 10.5V12.5Z" fill="black"/>
</svg>
