<svg width="134" height="134" viewBox="0 0 134 134" fill="none" xmlns="http://www.w3.org/2000/svg">
<path d="M15.4471 81.7857C7.33935 71.5081 2.92945 58.7992 2.92857 45.7085V13.5742C16.4401 6.58239 31.4316 2.93335 46.645 2.93335C61.8584 2.93335 76.8499 6.58239 90.3614 13.5742" stroke="#FCC70A" stroke-width="4.85" stroke-linecap="round" stroke-linejoin="round"/>
<path d="M74.7871 130.48C71.3376 131.26 67.7524 131.21 64.3256 130.337C60.8987 129.463 57.7278 127.789 55.0729 125.453C45.8491 117.501 39.0188 107.141 35.3458 95.5301C31.6728 83.9191 31.3018 71.5154 34.2743 59.7057L41.47 30.9229C57.0983 26.9593 73.4663 26.9378 89.105 30.8604C104.744 34.7829 119.164 42.5268 131.071 53.3972L123.876 82.0814C120.975 93.9018 114.85 104.685 106.183 113.23C97.5162 121.775 86.6474 127.747 74.7871 130.48Z" stroke="#FCC70A" stroke-width="4.85" stroke-linecap="round" stroke-linejoin="round"/>
<path d="M53.2986 62.17C54.542 60.8687 56.1181 59.9327 57.8557 59.4636C59.5934 58.9944 61.4263 59.01 63.1557 59.5086C64.8485 59.9068 66.4058 60.7457 67.6695 61.9402C68.9333 63.1348 69.8586 64.6423 70.3514 66.31M92.3329 71.9286C93.5365 70.6351 95.0658 69.6889 96.7605 69.189C98.4553 68.6892 100.253 68.6541 101.966 69.0873C103.679 69.5206 105.244 70.4064 106.497 71.6519C107.751 72.8974 108.646 74.4569 109.09 76.1671" stroke="#FCC70A" stroke-width="4.85" stroke-linecap="round" stroke-linejoin="round"/>
</svg>
